<svg width="98" height="60" viewBox="0 0 98 60" fill="none" xmlns="http://www.w3.org/2000/svg">
<g clip-path="url(#clip0_2108_17729)">
<path d="M58.9487 50.6705C72.9779 50.6705 84.3507 39.3919 84.3507 25.4791C84.3507 11.5662 72.9779 0.287598 58.9487 0.287598C44.9196 0.287598 33.5468 11.5662 33.5468 25.4791C33.5468 39.3919 44.9196 50.6705 58.9487 50.6705Z" fill="#F2F2F2"/>
<path d="M75.5485 11.5532H29.0156C28.9158 11.5511 28.8367 11.4691 28.8388 11.3702C28.8409 11.2742 28.9188 11.1969 29.0156 11.1948H75.5485C75.6483 11.1969 75.7275 11.2789 75.7253 11.3778C75.7233 11.4738 75.6453 11.5511 75.5485 11.5532Z" fill="#CACACA"/>
<path d="M68.6227 17.5918H55.7592C54.793 17.5918 54.0098 18.3686 54.0098 19.3268V19.3268C54.0098 20.2849 54.793 21.0617 55.7592 21.0617H68.6227C69.5889 21.0617 70.3722 20.2849 70.3722 19.3268C70.3722 18.3686 69.5889 17.5918 68.6227 17.5918Z" fill="white"/>
<path d="M47.4493 24.5312H76.9326C77.8988 24.5312 78.6821 25.308 78.6821 26.2662C78.6821 27.2244 77.8988 28.0012 76.9326 28.0012H47.4493C46.4831 28.0012 45.6998 27.2244 45.6998 26.2662C45.6998 25.308 46.4831 24.5312 47.4493 24.5312Z" fill="white"/>
<path d="M47.4493 31.4712H76.9326C77.8988 31.4712 78.6821 32.248 78.6821 33.2061C78.6821 34.1643 77.8988 34.9411 76.9326 34.9411H47.4493C46.4831 34.9411 45.6998 34.1643 45.6998 33.2061C45.6998 32.248 46.4831 31.4712 47.4493 31.4712Z" fill="white"/>
<path d="M31.3764 9.28367C31.8434 9.28367 32.2221 8.89979 32.2221 8.42626C32.2221 7.95272 31.8434 7.56885 31.3764 7.56885C30.9093 7.56885 30.5306 7.95272 30.5306 8.42626C30.5306 8.89979 30.9093 9.28367 31.3764 9.28367Z" fill="#3F3D56"/>
<path d="M34.298 9.28367C34.7651 9.28367 35.1437 8.89979 35.1437 8.42626C35.1437 7.95272 34.7651 7.56885 34.298 7.56885C33.8309 7.56885 33.4523 7.95272 33.4523 8.42626C33.4523 8.89979 33.8309 9.28367 34.298 9.28367Z" fill="#3F3D56"/>
<path d="M37.2196 9.28367C37.6867 9.28367 38.0654 8.89979 38.0654 8.42626C38.0654 7.95272 37.6867 7.56885 37.2196 7.56885C36.7525 7.56885 36.3739 7.95272 36.3739 8.42626C36.3739 8.89979 36.7525 9.28367 37.2196 9.28367Z" fill="#3F3D56"/>
<path d="M40.551 9.10382C40.5251 9.10382 40.4991 9.09384 40.4796 9.07399L39.9089 8.49548C39.8709 8.45693 39.8709 8.39533 39.9089 8.35678L40.4796 7.77832C40.5183 7.73919 40.5817 7.73856 40.621 7.77677C40.6605 7.81507 40.6612 7.87788 40.6225 7.91701L40.1203 8.42613L40.6225 8.93529C40.6612 8.97442 40.6605 9.03723 40.621 9.07554C40.6015 9.09443 40.5763 9.10382 40.551 9.10382Z" fill="#3F3D56"/>
<path d="M41.5099 9.10389C41.4847 9.10389 41.4594 9.0945 41.44 9.07561C41.4005 9.0373 41.3998 8.97454 41.4384 8.93537L41.9406 8.4262L41.4384 7.91709C41.3998 7.87796 41.4005 7.81515 41.44 7.77684C41.4794 7.73849 41.5428 7.73921 41.5814 7.77839L42.152 8.35685C42.1901 8.3954 42.1901 8.457 42.152 8.49555L41.5814 9.07406C41.5618 9.09392 41.5359 9.10389 41.5099 9.10389Z" fill="#3F3D56"/>
<path d="M71.3632 7.66797H70.3021C70.1811 7.66797 70.0831 7.76516 70.0831 7.88517V8.93845C70.0831 9.05846 70.1811 9.15565 70.3021 9.15565H71.3632C71.4842 9.15565 71.5832 9.05846 71.5832 8.93845V7.88517C71.5832 7.76516 71.4842 7.66797 71.3632 7.66797Z" fill="#3F3D56"/>
<path d="M68.763 7.66797H67.7019C67.5809 7.66797 67.4829 7.76516 67.4829 7.88517V8.93845C67.4829 9.05846 67.5809 9.15565 67.7019 9.15565H68.763C68.884 9.15565 68.983 9.05846 68.983 8.93845V7.88517C68.983 7.76516 68.884 7.66797 68.763 7.66797Z" fill="#3F3D56"/>
<path d="M73.8134 7.71777H72.7523C72.6313 7.71777 72.5333 7.81497 72.5333 7.93497V8.98826C72.5333 9.10826 72.6313 9.20546 72.7523 9.20546H73.8134C73.9344 9.20546 74.0334 9.10826 74.0334 8.98826V7.93497C74.0334 7.81497 73.9344 7.71777 73.8134 7.71777Z" fill="#3F3D56"/>
<path d="M57.82 8.11816H49.3383C49.1903 8.11816 49.0713 8.23718 49.0713 8.38298C49.0713 8.52877 49.1903 8.64778 49.3383 8.64778H57.82C57.967 8.64778 58.087 8.52877 58.087 8.38298C58.087 8.23719 57.967 8.11816 57.82 8.11816Z" fill="#3F3D56"/>
<path d="M22.8621 59.6301L22.7927 59.6234C20.4385 59.3825 18.3102 58.1268 16.9734 56.19C16.6072 55.6503 16.3111 55.067 16.0918 54.4539L16.0708 54.3954L16.1331 54.3904C16.8779 54.331 17.643 54.2057 17.9829 54.146L15.7912 53.4096L15.7777 53.3451C15.6477 52.7397 15.9023 52.1168 16.4206 51.772C16.9403 51.4105 17.6294 51.399 18.1611 51.7428C18.3997 51.8939 18.6493 52.0436 18.8907 52.1884C19.7201 52.686 20.5777 53.2004 21.2207 53.9044C22.1957 54.9931 22.6231 56.4602 22.3838 57.8969L22.8621 59.6301Z" fill="#F2F2F2"/>
<path d="M30.8287 58.5491L31.9088 58.549L32.4227 54.417L30.8284 54.4171L30.8287 58.5491Z" fill="#A0616A"/>
<path d="M30.7905 59.6667L34.1122 59.6665V59.6249C34.1121 58.9168 33.5333 58.3428 32.8193 58.3427L32.2124 57.8862L31.0804 58.3428L30.7904 58.3428L30.7905 59.6667Z" fill="#2F2E41"/>
<path d="M22.172 55.5821L23.036 56.2249L25.9475 53.2256L24.6722 52.2769L22.172 55.5821Z" fill="#A0616A"/>
<path d="M21.4653 56.4535L24.1224 58.4304L24.1476 58.397C24.5761 57.8306 24.4605 57.0269 23.8894 56.602L23.6802 55.8756L22.4984 55.5671L22.2664 55.3945L21.4653 56.4535Z" fill="#2F2E41"/>
<path d="M25.7627 39.1587C25.7627 39.1587 25.8223 40.7718 25.8975 42.0654C25.9099 42.2776 25.4087 42.5081 25.4217 42.7389C25.4303 42.892 25.5245 43.0408 25.5332 43.2005C25.5425 43.369 25.4124 43.5182 25.4217 43.6924C25.4307 43.8627 25.5791 44.0579 25.5881 44.2322C25.6844 46.1076 26.0336 48.3527 25.6839 48.9803C25.5116 49.2896 23.3152 53.5747 23.3152 53.5747C23.3152 53.5747 24.5389 55.3952 24.8886 54.7884C25.3504 53.9869 28.9095 50.2373 28.9095 49.5212C28.9095 48.8061 29.7329 43.4462 29.7329 43.4462L30.3071 46.6181L30.5703 47.2466L30.4876 47.6155L30.6578 48.1134L30.6669 48.6062L30.8326 49.5212C30.8326 49.5212 30.3343 56.6504 30.6149 56.8489C30.8964 57.0483 32.2591 57.4063 32.42 57.0483C32.5799 56.6903 33.6211 49.6079 33.6211 49.6079C33.6211 49.6079 33.789 46.3624 33.9708 43.3457C33.9813 43.1705 34.1054 42.959 34.115 42.7865C34.1264 42.5863 34.0477 42.3262 34.0582 42.132C34.0696 41.9093 34.1692 41.7523 34.1788 41.5391C34.2531 39.8912 33.836 37.8844 33.7032 37.6868C33.3019 37.0904 32.9409 36.6136 32.9409 36.6136C32.9409 36.6136 27.537 34.8528 26.0929 36.642L25.7627 39.1587Z" fill="#2F2E41"/>
<path d="M31.1524 22.5714L29.0102 22.1465L28.0104 23.492C26.145 25.311 26.1169 26.9164 26.4499 29.4897V33.1014L26.2089 35.5225C26.2089 35.5225 25.3557 37.2924 26.2357 37.7045C27.1157 38.1165 32.8961 38.0814 33.448 37.9169C33.9999 37.7524 33.5215 37.5505 33.3766 36.7839C33.1043 35.3438 33.2864 36.0385 33.3052 35.58C33.5738 29.0031 32.9481 26.303 32.8846 25.5933L31.7951 23.6336L31.1524 22.5714Z" fill="#3F3D56"/>
<path d="M42.4434 27.8742C42.2202 28.2937 41.6962 28.4543 41.2732 28.2329C41.2281 28.2093 41.1852 28.1818 41.145 28.1507L36.5186 31.0639L36.5319 29.4777L41.0261 26.8913C41.3462 26.5354 41.8967 26.5042 42.2556 26.8216C42.5559 27.0873 42.6336 27.5224 42.4434 27.8742Z" fill="#A0616A"/>
<path d="M29.4609 24.408L28.9342 24.3526C28.4476 24.3025 27.9701 24.5092 27.6762 24.8972C27.5636 25.0443 27.4828 25.2128 27.4387 25.3923L27.4384 25.3937C27.3062 25.9338 27.5135 26.4997 27.9642 26.8299L29.7834 28.16C31.06 29.8708 33.4593 31.0057 36.2737 31.9278L40.6483 29.2334L39.101 27.375L36.1005 28.9698L31.6403 25.5457L31.6377 25.5437L29.9402 24.4591L29.4609 24.408Z" fill="#3F3D56"/>
<path d="M30.4286 21.5282C31.8083 21.5282 32.9268 20.419 32.9268 19.0507C32.9268 17.6824 31.8083 16.5732 30.4286 16.5732C29.0489 16.5732 27.9304 17.6824 27.9304 19.0507C27.9304 20.419 29.0489 21.5282 30.4286 21.5282Z" fill="#A0616A"/>
<path d="M30.4863 21.5288C30.4661 21.5295 30.4459 21.5299 30.4258 21.5305C30.4171 21.5527 30.4078 21.5747 30.3971 21.5963L30.4863 21.5288Z" fill="#2F2E41"/>
<path d="M31.1719 19.1191C31.1758 19.1436 31.1818 19.1676 31.1898 19.191C31.1865 19.1665 31.1805 19.1424 31.1719 19.1191Z" fill="#2F2E41"/>
<path d="M32.9586 16.6791C32.8558 16.9957 32.764 16.5941 32.4258 16.6663C32.0189 16.7532 31.5453 16.7234 31.2121 16.476C30.7156 16.1147 30.0721 16.0175 29.4896 16.2157C28.9194 16.4157 27.9642 16.5568 27.8156 17.1382C27.7639 17.3403 27.7434 17.5597 27.6183 17.7272C27.5088 17.8736 27.3361 17.9571 27.1916 18.0698C26.7038 18.4504 27.0767 19.5317 27.3075 20.103C27.5384 20.6744 28.0679 21.0906 28.6501 21.3038C29.2135 21.51 29.8249 21.5464 30.4258 21.5302C30.5303 21.2614 30.4852 20.9509 30.3989 20.6722C30.3056 20.3705 30.1673 20.0793 30.1283 19.7661C30.0893 19.4529 30.175 19.0971 30.4398 18.9221C30.6832 18.7612 31.0793 18.8592 31.1719 19.1193C31.1179 18.7941 31.45 18.4795 31.7925 18.4242C32.1601 18.3648 32.5278 18.4964 32.8944 18.5619C33.2611 18.6275 33.1309 17.0968 32.9586 16.6791Z" fill="#2F2E41"/>
<path d="M46.9302 23.1488C47.1631 20.3583 45.0708 17.9088 42.2569 17.6779C39.4431 17.4469 36.9732 19.5219 36.7403 22.3125C36.5074 25.103 38.5997 27.5525 41.4136 27.7834C44.2275 28.0144 46.6974 25.9394 46.9302 23.1488Z" fill="#FF4D4F"/>
<path d="M43.1783 20.6182L41.8353 21.95L40.4924 20.6182C40.275 20.4026 39.9225 20.4026 39.7052 20.6182C39.4878 20.8338 39.4878 21.1834 39.7052 21.3989L41.0481 22.7308L39.7052 24.0626C39.488 24.2783 39.4883 24.6279 39.7059 24.8433C39.9232 25.0584 40.2751 25.0584 40.4924 24.8433L41.8353 23.5115L43.1783 24.8433C43.3959 25.0587 43.7483 25.0583 43.9655 24.8425C44.1824 24.627 44.1824 24.2781 43.9655 24.0626L42.6226 22.7308L43.9655 21.3989C44.1829 21.1834 44.1829 20.8338 43.9655 20.6182C43.7481 20.4026 43.3956 20.4026 43.1783 20.6182Z" fill="white"/>
<path d="M39.8207 18.4694C39.9714 18.9196 39.7255 19.4058 39.2715 19.5552C39.2231 19.5711 39.1734 19.5828 39.1229 19.5901L38.0398 24.9176L36.8949 23.81L38.1243 18.8033C38.0869 18.3278 38.4453 17.9122 38.9248 17.8752C39.326 17.8442 39.6963 18.0898 39.8207 18.4694Z" fill="#A0616A"/>
<path d="M28.3109 25.3602L27.906 25.6988C27.5327 26.0125 27.3525 26.4973 27.4313 26.9762C27.4605 27.1586 27.5271 27.3331 27.6271 27.4889L27.6279 27.4901C27.9294 27.9585 28.4847 28.2021 29.037 28.1081L31.2643 27.7271C33.3929 27.9978 35.8798 27.0666 38.4992 25.6909L39.5672 20.695L37.1437 20.5156L36.2268 23.767L30.6476 24.5883L30.6443 24.5887L28.6798 25.0527L28.3109 25.3602Z" fill="#3F3D56"/>
<path d="M40.9931 59.7523L13.816 59.7828C13.7502 59.7826 13.6971 59.7295 13.6973 59.6643C13.6975 59.5994 13.7505 59.5468 13.816 59.5466L40.9931 59.5161C41.0588 59.5163 41.112 59.5694 41.1118 59.6346C41.1116 59.6995 41.0585 59.7521 40.9931 59.7523Z" fill="#CACACA"/>
</g>
<defs>
<clipPath id="clip0_2108_17729">
<rect width="97.2076" height="59.5074" fill="white" transform="translate(0.39624 0.246094)"/>
</clipPath>
</defs>
</svg>
