<svg width="98" height="60" viewBox="0 0 98 60" fill="none" xmlns="http://www.w3.org/2000/svg">
<g clip-path="url(#clip0_2108_17020)">
<path fill-rule="evenodd" clip-rule="evenodd" d="M49.6001 28.1172C49.6001 32.4992 46.0181 36.0515 41.5994 36.0515H12.5972V35.2581H41.5994C45.5762 35.2581 48.8 32.061 48.8 28.1172H49.6001Z" fill="#ADD6FF"/>
<path fill-rule="evenodd" clip-rule="evenodd" d="M48.8 28.1172C48.8 32.4992 52.382 36.0515 56.8006 36.0515H85.0028V35.2581H56.8006C52.8238 35.2581 49.6 32.061 49.6 28.1172H48.8Z" fill="#ADD6FF"/>
<path d="M25.9982 43.4885C25.9998 45.5346 25.5019 47.5507 24.5472 49.3646C23.5924 51.1785 22.2091 52.7363 20.5154 53.9048C20.0383 54.2359 19.5387 54.5339 19.0202 54.7967C18.8481 54.8842 18.6749 54.9674 18.4983 55.0462C18.3394 55.1184 18.1794 55.1862 18.0172 55.2508C16.0054 56.0586 13.8199 56.3478 11.6649 56.0912C11.2919 56.0474 10.9237 55.9872 10.5603 55.9106C10.5449 55.9073 10.5283 55.9041 10.5129 55.9008C9.75187 55.7412 9.0075 55.5115 8.28949 55.2147C6.14895 54.3335 4.28979 52.8925 2.91039 51.0455C1.531 49.1985 0.683113 47.0147 0.457203 44.7273C0.231294 42.4398 0.635837 40.1344 1.62767 38.057C2.6195 35.9797 4.16141 34.2084 6.08888 32.9321C8.01635 31.6558 10.2571 30.9224 12.5719 30.8101C14.8868 30.6978 17.189 31.2109 19.2328 32.2946C21.2767 33.3783 22.9855 34.9919 24.177 36.9634C25.3685 38.9348 25.998 41.19 25.9982 43.4885Z" fill="#F1F1F1"/>
<mask id="mask0_2108_17020" style="mask-type:alpha" maskUnits="userSpaceOnUse" x="0" y="30" width="26" height="27">
<path d="M25.9982 43.4885C25.9998 45.5346 25.5019 47.5507 24.5472 49.3646C23.5924 51.1785 22.2091 52.7363 20.5154 53.9048C20.0383 54.2359 19.5387 54.5339 19.0202 54.7967C18.8481 54.8842 18.6749 54.9674 18.4983 55.0462C18.3394 55.1184 18.1794 55.1862 18.0172 55.2508C16.0054 56.0586 13.8199 56.3478 11.6649 56.0912C11.2919 56.0474 10.9237 55.9872 10.5603 55.9106C10.5449 55.9073 10.5283 55.9041 10.5129 55.9008C9.75187 55.7412 9.0075 55.5115 8.28949 55.2147C6.14895 54.3335 4.28979 52.8925 2.91039 51.0455C1.531 49.1985 0.683113 47.0147 0.457203 44.7273C0.231294 42.4398 0.635837 40.1344 1.62767 38.057C2.6195 35.9797 4.16141 34.2084 6.08888 32.9321C8.01635 31.6558 10.2571 30.9224 12.5719 30.8101C14.8868 30.6978 17.189 31.2109 19.2328 32.2946C21.2767 33.3783 22.9855 34.9919 24.177 36.9634C25.3685 38.9348 25.998 41.19 25.9982 43.4885Z" fill="#F1F1F1"/>
</mask>
<g mask="url(#mask0_2108_17020)">
<path d="M15.7964 38.2774C15.7832 38.2617 15.7688 38.2474 15.7544 38.2331C14.9415 37.4191 13.8376 36.956 12.6824 36.9443C11.5273 36.9326 10.4141 37.3733 9.58458 38.1707C9.57542 38.1785 9.56754 38.1863 9.55966 38.1941C9.54916 38.2032 9.54 38.2123 9.53078 38.2214C9.12228 38.6255 8.79823 39.1056 8.57721 39.6342C8.35619 40.1628 8.24255 40.7294 8.2428 41.3016V44.0331C8.24303 44.1883 8.30529 44.3371 8.41593 44.4468C8.52657 44.5565 8.67656 44.6182 8.83302 44.6185H16.4404C16.5968 44.6182 16.7468 44.5565 16.8575 44.4468C16.9681 44.3371 17.0304 44.1883 17.0306 44.0331V41.3016C17.0317 40.1726 16.5889 39.0877 15.7964 38.2774Z" fill="#2F2E41"/>
<path d="M12.813 44.5914C14.5922 44.5914 16.0345 43.1611 16.0345 41.3967C16.0345 39.6322 14.5922 38.2019 12.813 38.2019C11.0338 38.2019 9.59155 39.6322 9.59155 41.3967C9.59155 43.1611 11.0338 44.5914 12.813 44.5914Z" fill="#FFB7B7"/>
<path d="M16.1991 41.1247L15.8188 38.4894C15.807 38.4085 15.7654 38.3348 15.702 38.2825C15.6806 38.2655 15.6573 38.2511 15.6325 38.2396C13.6847 37.3356 11.7095 37.3356 9.76172 38.237C9.73572 38.2489 9.71144 38.2642 9.68954 38.2825C9.68172 38.289 9.67385 38.2968 9.66597 38.3047C9.61391 38.358 9.58155 38.4272 9.57413 38.5011L9.31969 41.1403C9.3154 41.1854 9.32065 41.2309 9.33511 41.2739C9.34956 41.3169 9.37291 41.3565 9.40365 41.39C9.45318 41.4441 9.51978 41.4799 9.59251 41.4915C9.61019 41.4952 9.62823 41.4969 9.64631 41.4967H10.2916C10.354 41.4965 10.4151 41.4788 10.4677 41.4456C10.5204 41.4125 10.5626 41.3653 10.5893 41.3094L10.8687 40.7162C10.8866 40.6778 10.9166 40.6462 10.9543 40.6262C10.9919 40.6063 11.0351 40.599 11.0773 40.6057C11.1194 40.6123 11.1583 40.6324 11.1879 40.6629C11.2174 40.6935 11.2362 40.7327 11.2412 40.7748L11.2963 41.2118C11.3065 41.2903 11.3451 41.3625 11.4049 41.4149C11.4648 41.4673 11.5418 41.4963 11.6216 41.4967H15.8751C15.9308 41.4969 15.9856 41.4826 16.0338 41.4551C16.0674 41.4369 16.0976 41.4132 16.123 41.3848C16.1538 41.3494 16.1765 41.3078 16.1896 41.2629C16.2027 41.2181 16.206 41.1709 16.1991 41.1247Z" fill="#2F2E41"/>
<path d="M20.7792 50.4446L21.6921 53.4754C21.1251 53.8689 20.5312 54.2232 19.9149 54.5355C19.7103 54.6395 19.5043 54.7384 19.2945 54.832L18.3488 50.8114L17.9816 49.2518L20.3425 48.9917L20.7792 50.4446Z" fill="#FFB7B7"/>
<path d="M9.91516 49.9412L9.83645 54.0359L9.80238 55.8478C8.89773 55.6581 8.01291 55.3851 7.15942 55.0323L7.47292 51.1535L7.55163 50.1753L9.91516 49.9412Z" fill="#FFB7B7"/>
<path d="M20.7792 50.4445L18.4078 50.797L18.4367 51.1833L18.7226 55.0751C16.3311 56.0354 13.7333 56.3791 11.1716 56.0741C10.7283 56.0221 10.2907 55.9505 9.85868 55.8595C10.0528 55.0504 10.2207 54.322 10.0135 54.1789C9.95102 54.1356 9.89184 54.0877 9.83639 54.0358C8.86971 53.1214 9.2265 51.0571 9.2265 51.0571L7.47286 51.1534L6.8656 51.1872C6.8656 51.1872 7.12792 47.0248 8.30838 47.0248H9.75115L16.7027 46.3745C16.7027 46.3745 18.6701 45.7241 19.1948 46.6346C19.4702 47.112 19.9607 48.124 20.3661 48.9798C20.7333 49.7577 21.031 50.4068 21.031 50.4068L20.7792 50.4445Z" fill="#2F2E41"/>
</g>
<path d="M13.1986 58.8543C14.8097 58.8543 16.1157 57.5591 16.1157 55.9615C16.1157 54.3638 14.8097 53.0686 13.1986 53.0686C11.5876 53.0686 10.2816 54.3638 10.2816 55.9615C10.2816 57.5591 11.5876 58.8543 13.1986 58.8543Z" fill="#1677FF"/>
<path d="M12.9206 57.1827L12.0475 56.0694L12.5553 55.6778L12.9686 56.2049L14.3652 54.7429L14.8322 55.1816L12.9206 57.1827Z" fill="white"/>
<g clip-path="url(#clip1_2108_17020)">
<path d="M13.1972 53.0605C11.4576 53.0605 10.047 54.4594 10.047 56.1847C10.047 57.9099 11.4576 59.3088 13.1972 59.3088C14.9369 59.3088 16.3475 57.9099 16.3475 56.1847C16.3475 54.4594 14.9369 53.0605 13.1972 53.0605ZM14.5473 56.352C14.5473 56.3827 14.522 56.4078 14.4911 56.4078H13.4223V57.4678C13.4223 57.4985 13.3969 57.5236 13.366 57.5236H13.0285C12.9975 57.5236 12.9722 57.4985 12.9722 57.4678V56.4078H11.9034C11.8725 56.4078 11.8471 56.3827 11.8471 56.352V56.0173C11.8471 55.9866 11.8725 55.9615 11.9034 55.9615H12.9722V54.9016C12.9722 54.8709 12.9975 54.8458 13.0285 54.8458H13.366C13.3969 54.8458 13.4223 54.8709 13.4223 54.9016V55.9615H14.4911C14.522 55.9615 14.5473 55.9866 14.5473 56.0173V56.352Z" fill="#0070E0"/>
<path d="M14.7306 56.4492C14.7673 56.4492 14.7973 56.4195 14.7973 56.3831V55.9864C14.7973 55.95 14.7673 55.9203 14.7306 55.9203H13.4639V54.664C13.4639 54.6277 13.4339 54.5979 13.3972 54.5979H12.9972C12.9605 54.5979 12.9305 54.6277 12.9305 54.664V55.9203H11.6637C11.627 55.9203 11.597 55.95 11.597 55.9864V56.3831C11.597 56.4195 11.627 56.4492 11.6637 56.4492H12.9305V57.7055C12.9305 57.7419 12.9605 57.7716 12.9972 57.7716H13.3972C13.4339 57.7716 13.4639 57.7419 13.4639 57.7055V56.4492H14.7306Z" fill="white"/>
<path fill-rule="evenodd" clip-rule="evenodd" d="M13.0305 54.6971V56.0195H11.6971V56.3501H13.0305V57.6725H13.3639V56.3501H14.6973V56.0195H13.3639V54.6971H13.0305ZM12.8305 54.6641C12.8305 54.5729 12.9053 54.4988 12.9972 54.4988H13.3972C13.4891 54.4988 13.5639 54.5729 13.5639 54.6641V55.8212H14.7307C14.8226 55.8212 14.8973 55.8953 14.8973 55.9865V56.3832C14.8973 56.4743 14.8226 56.5485 14.7307 56.5485H13.5639V57.7056C13.5639 57.7967 13.4891 57.8709 13.3972 57.8709H12.9972C12.9053 57.8709 12.8305 57.7967 12.8305 57.7056V56.5485H11.6638C11.5718 56.5485 11.4971 56.4743 11.4971 56.3832V55.9865C11.4971 55.8953 11.5718 55.8212 11.6638 55.8212H12.8305V54.6641Z" fill="white"/>
</g>
<path d="M61.8002 13.0826C61.7795 15.0871 61.2798 17.0583 60.3421 18.8342C59.4044 20.6102 58.0554 22.1403 56.4058 23.2989C56.3771 23.3186 56.3473 23.3394 56.3175 23.3602C56.2866 23.3821 56.2546 23.404 56.2226 23.4248C56.0372 23.5517 55.8481 23.6732 55.6554 23.7892C55.3839 23.9534 55.1062 24.1077 54.8222 24.2521C54.8134 24.2565 54.8034 24.2609 54.7946 24.2653C54.6313 24.3484 54.4666 24.4272 54.3003 24.5017C54.2947 24.5039 54.2903 24.506 54.2848 24.5082C54.2462 24.5257 54.2053 24.5443 54.1656 24.5608C53.8577 24.6965 53.5432 24.8201 53.2232 24.9296C52.9506 25.0248 52.674 25.1102 52.3934 25.1857C51.8194 25.3427 51.2349 25.459 50.6442 25.5337C50.1406 25.5979 49.6336 25.6323 49.1258 25.6366C49.0838 25.6377 49.0419 25.6376 49 25.6376C48.723 25.6376 48.4471 25.6289 48.1745 25.6114C47.9362 25.5961 47.7 25.5753 47.4661 25.5468C47.1052 25.5041 46.7488 25.4472 46.3978 25.3728C46.3824 25.3706 46.367 25.3673 46.3515 25.3641C46.3394 25.3619 46.3261 25.3586 46.314 25.3564C45.9608 25.2831 45.6132 25.1933 45.2723 25.0905C44.9511 24.9941 44.6359 24.8854 44.3265 24.7643C44.2471 24.7337 44.1687 24.703 44.0903 24.6702C43.8951 24.5892 43.7019 24.505 43.5121 24.4141C43.4569 24.389 43.4029 24.3627 43.3488 24.3364C43.1656 24.2478 42.9846 24.1548 42.8081 24.0563C42.5951 23.9392 42.3858 23.8162 42.1802 23.6874C41.9208 23.5255 41.667 23.3548 41.4209 23.1742C39.2345 21.5811 37.615 19.3403 36.796 16.7752C35.9771 14.2101 36.0012 11.4533 36.8647 8.90256C37.7282 6.35187 39.3866 4.1392 41.6004 2.58386C43.8143 1.02852 46.4692 0.21093 49.182 0.24908C56.2014 0.345774 61.876 6.12112 61.8002 13.0826Z" fill="#F1F1F1"/>
<mask id="mask1_2108_17020" style="mask-type:alpha" maskUnits="userSpaceOnUse" x="36" y="0" width="26" height="26">
<path d="M61.8002 13.0826C61.7795 15.0871 61.2798 17.0583 60.3421 18.8342C59.4044 20.6102 58.0554 22.1403 56.4058 23.2989C56.3771 23.3186 56.3473 23.3394 56.3175 23.3602C56.2866 23.3821 56.2546 23.404 56.2226 23.4248C56.0372 23.5517 55.8481 23.6732 55.6554 23.7892C55.3839 23.9534 55.1062 24.1077 54.8222 24.2521C54.8134 24.2565 54.8034 24.2609 54.7946 24.2653C54.6313 24.3484 54.4666 24.4272 54.3003 24.5017C54.2947 24.5039 54.2903 24.506 54.2848 24.5082C54.2462 24.5257 54.2053 24.5443 54.1656 24.5608C53.8577 24.6965 53.5432 24.8201 53.2232 24.9296C52.9506 25.0248 52.674 25.1102 52.3934 25.1857C51.8194 25.3427 51.2349 25.459 50.6442 25.5337C50.1406 25.5979 49.6336 25.6323 49.1258 25.6366C49.0838 25.6377 49.0419 25.6376 49 25.6376C48.723 25.6376 48.4471 25.6289 48.1745 25.6114C47.9362 25.5961 47.7 25.5753 47.4661 25.5468C47.1052 25.5041 46.7488 25.4472 46.3978 25.3728C46.3824 25.3706 46.367 25.3673 46.3515 25.3641C46.3394 25.3619 46.3261 25.3586 46.314 25.3564C45.9608 25.2831 45.6132 25.1933 45.2723 25.0905C44.9511 24.9941 44.6359 24.8854 44.3265 24.7643C44.2471 24.7337 44.1687 24.703 44.0903 24.6702C43.8951 24.5892 43.7019 24.505 43.5121 24.4141C43.4569 24.389 43.4029 24.3627 43.3488 24.3364C43.1656 24.2478 42.9846 24.1548 42.8081 24.0563C42.5951 23.9392 42.3858 23.8162 42.1802 23.6874C41.9208 23.5255 41.667 23.3548 41.4209 23.1742C39.2345 21.5811 37.615 19.3403 36.796 16.7752C35.9771 14.2101 36.0012 11.4533 36.8647 8.90256C37.7282 6.35187 39.3866 4.1392 41.6004 2.58386C43.8143 1.02852 46.4692 0.21093 49.182 0.24908C56.2014 0.345774 61.876 6.12112 61.8002 13.0826Z" fill="#F1F1F1"/>
</mask>
<g mask="url(#mask1_2108_17020)">
<path d="M45.5819 25.2873C45.142 25.196 44.7089 25.0842 44.2842 24.956L45.7427 15.9867L47.2535 15.9403L49.9934 15.8544L51.3984 15.8108C51.3984 15.8108 52.395 20.1544 53.1552 25.0746C52.4402 25.2702 51.7121 25.4151 50.9763 25.5082C50.3489 25.5882 49.7172 25.631 49.0847 25.6363C49.0324 25.6377 48.9802 25.6377 48.928 25.6377C48.5829 25.6377 48.2393 25.6268 47.8997 25.605C47.6027 25.5859 47.3086 25.56 47.0171 25.5245C46.5676 25.4713 46.1235 25.4005 45.6863 25.3077C45.6672 25.305 45.6479 25.3009 45.6286 25.2968C45.6135 25.2941 45.597 25.29 45.5819 25.2873Z" fill="#CBCBCB"/>
<path d="M45.6864 25.3078C45.6672 25.3051 45.6479 25.301 45.6287 25.2969C45.6136 25.2942 45.597 25.2901 45.5819 25.2874C45.142 25.196 44.709 25.0842 44.2842 24.9561C43.8842 24.8361 43.4914 24.7007 43.106 24.5498C43.0071 24.5116 42.9095 24.4735 42.8118 24.4326C42.5686 24.3317 42.328 24.2267 42.0915 24.1136C42.0228 24.0822 41.9554 24.0495 41.888 24.0168L41.7671 17.301L45.4788 15.7236C45.4788 15.7236 45.4912 15.8218 47.2536 15.9404C47.589 17.0256 45.6864 25.3078 45.6864 25.3078Z" fill="#2F2E41"/>
<path d="M56.7804 16.9831L56.0807 20.63L56.1466 23.9279C55.9432 24.0315 55.738 24.1297 55.5308 24.2224C55.5239 24.2251 55.5184 24.2279 55.5115 24.2306C55.4634 24.2524 55.4125 24.2756 55.3631 24.296C54.9795 24.4651 54.5877 24.6192 54.189 24.7555C53.8495 24.8741 53.5049 24.9804 53.1553 25.0745C52.4402 25.2701 51.7121 25.415 50.9763 25.508C50.3489 25.5881 49.7173 25.6309 49.0847 25.6362L49.0118 19.7916C48.8579 17.9075 49.3679 16.6614 49.9934 15.8543C53.3271 15.4126 53.2529 15.373 53.2529 15.373L56.7873 16.9504L56.7804 16.9831Z" fill="#2F2E41"/>
<path d="M43.3576 17.8273L43.1061 24.5499C43.0071 24.5117 42.9095 24.4735 42.8118 24.4326C42.5686 24.3317 42.328 24.2267 42.0915 24.1136C42.0228 24.0822 41.9555 24.0495 41.8881 24.0168C41.6598 23.9064 41.4344 23.7905 41.2145 23.6678C40.9491 23.5219 40.6884 23.3688 40.4323 23.2083L41.7671 17.301L43.3576 17.8273Z" fill="#2F2E41"/>
<path d="M58.1538 22.7241C58.1181 22.7487 58.0809 22.7746 58.0438 22.8005C58.0054 22.8277 57.9655 22.855 57.9256 22.8809C57.6946 23.0391 57.4591 23.1904 57.219 23.3349C56.8808 23.5394 56.5348 23.7316 56.181 23.9116C56.1701 23.917 56.1577 23.9225 56.1467 23.9279C55.9371 24.0347 55.7255 24.1357 55.512 24.2308L55.5116 24.2306L55.26 17.4848L56.7805 16.9831L56.8505 16.96L58.1538 22.7241Z" fill="#2F2E41"/>
<path d="M52.7223 10.7405C53.3333 8.67384 52.1436 6.50858 50.065 5.90424C47.9865 5.2999 45.8062 6.48533 45.1952 8.55196C44.5843 10.6186 45.774 12.7839 47.8525 13.3882C49.9311 13.9925 52.1114 12.8071 52.7223 10.7405Z" fill="#9F616A"/>
<path d="M45.009 10.624V9.10641C45.009 9.10641 43.775 7.66505 45.1324 7.30197C45.1324 7.30197 45.5026 3.67118 48.7112 5.36555C48.7112 5.36555 53.1537 4.63939 52.6601 7.18095C52.6601 7.18095 53.7707 6.51743 53.4005 8.2118L52.6845 10.9411C52.6845 10.9411 53.0303 9.1382 51.9197 8.89615L51.3027 8.53307C51.3027 8.53307 49.575 10.2274 46.9835 8.16999C46.9835 8.16999 45.8729 7.90711 45.9963 8.99635C46.1197 10.0856 45.009 10.624 45.009 10.624Z" fill="#2F2E41"/>
</g>
<path d="M49 28.0844C50.6112 28.0844 51.9173 26.7891 51.9173 25.1913C51.9173 23.5934 50.6112 22.2981 49 22.2981C47.3888 22.2981 46.0826 23.5934 46.0826 25.1913C46.0826 26.7891 47.3888 28.0844 49 28.0844Z" fill="#1677FF"/>
<path d="M48.722 26.4125L47.8488 25.299L48.3566 24.9073L48.77 25.4345L50.1667 23.9724L50.6337 24.4112L48.722 26.4125Z" fill="white"/>
<g clip-path="url(#clip2_2108_17020)">
<path d="M49 22.1167C47.2603 22.1167 45.8497 23.5156 45.8497 25.2408C45.8497 26.9661 47.2603 28.365 49 28.365C50.7396 28.365 52.1502 26.9661 52.1502 25.2408C52.1502 23.5156 50.7396 22.1167 49 22.1167ZM50.3501 25.4082C50.3501 25.4389 50.3248 25.464 50.2938 25.464H49.225V26.524C49.225 26.5546 49.1997 26.5798 49.1687 26.5798H48.8312C48.8003 26.5798 48.775 26.5546 48.775 26.524V25.464H47.7061C47.6752 25.464 47.6499 25.4389 47.6499 25.4082V25.0735C47.6499 25.0428 47.6752 25.0177 47.7061 25.0177H48.775V23.9577C48.775 23.927 48.8003 23.9019 48.8312 23.9019H49.1687C49.1997 23.9019 49.225 23.927 49.225 23.9577V25.0177H50.2938C50.3248 25.0177 50.3501 25.0428 50.3501 25.0735V25.4082Z" fill="#0070E0"/>
<path d="M50.5334 25.5054C50.57 25.5054 50.6 25.4756 50.6 25.4393V25.0426C50.6 25.0062 50.57 24.9764 50.5334 24.9764H49.2666V23.7202C49.2666 23.6838 49.2366 23.6541 49.1999 23.6541H48.7999C48.7632 23.6541 48.7332 23.6838 48.7332 23.7202V24.9764H47.4665C47.4298 24.9764 47.3998 25.0062 47.3998 25.0426V25.4393C47.3998 25.4756 47.4298 25.5054 47.4665 25.5054H48.7332V26.7617C48.7332 26.798 48.7632 26.8278 48.7999 26.8278H49.1999C49.2366 26.8278 49.2666 26.798 49.2666 26.7617V25.5054H50.5334Z" fill="white"/>
<path fill-rule="evenodd" clip-rule="evenodd" d="M48.8333 23.7533V25.0757H47.4998V25.4063H48.8333V26.7287H49.1666V25.4063H50.5001V25.0757H49.1666V23.7533H48.8333ZM48.6332 23.7202C48.6332 23.6291 48.708 23.5549 48.7999 23.5549H49.2C49.2919 23.5549 49.3666 23.6291 49.3666 23.7202V24.8773H50.5334C50.6253 24.8773 50.7001 24.9515 50.7001 25.0426V25.4393C50.7001 25.5305 50.6253 25.6046 50.5334 25.6046H49.3666V26.7617C49.3666 26.8529 49.2919 26.927 49.2 26.927H48.7999C48.708 26.927 48.6332 26.8529 48.6332 26.7617V25.6046H47.4665C47.3746 25.6046 47.2998 25.5305 47.2998 25.4393V25.0426C47.2998 24.9515 47.3746 24.8773 47.4665 24.8773H48.6332V23.7202Z" fill="white"/>
</g>
<path d="M97.6038 43.4889C97.6054 45.5351 97.1075 47.5513 96.1527 49.3653C95.1979 51.1792 93.8145 52.737 92.1208 53.9056C92.0899 53.9275 92.0579 53.9494 92.0259 53.9702C91.8405 54.0971 91.6514 54.2186 91.4587 54.3346C91.1873 54.4987 90.9096 54.653 90.6256 54.7974C90.4535 54.885 90.2802 54.9682 90.1037 55.047C90.0595 55.0667 90.0143 55.0874 89.9691 55.106C89.6612 55.2417 89.3467 55.3654 89.0267 55.4748C88.1909 55.7655 87.3265 55.968 86.4479 56.0789C85.9027 56.1484 85.3535 56.1832 84.8038 56.1828C84.5268 56.1828 84.251 56.1741 83.9784 56.1566C83.74 56.1413 83.5039 56.1205 83.27 56.092C82.8937 56.0472 82.5218 55.987 82.1555 55.9093C82.1434 55.9071 82.1301 55.9038 82.118 55.9016C81.3569 55.742 80.6125 55.5123 79.8945 55.2155C79.6992 55.1345 79.5061 55.0502 79.3163 54.9594C79.0769 54.8478 78.8422 54.7285 78.6123 54.6016C76.6366 53.519 74.9846 51.9376 73.8239 50.0178C72.6632 48.0979 72.035 45.9077 72.0031 43.6694C71.9712 41.4311 72.5366 39.2243 73.6421 37.2726C74.7475 35.3209 76.3537 33.6938 78.2978 32.5562C80.2418 31.4187 82.4546 30.8112 84.7118 30.7952C86.969 30.7793 89.1903 31.3556 91.1504 32.4656C93.1106 33.5756 94.74 35.1799 95.8733 37.1158C97.0066 39.0517 97.6037 41.2504 97.6038 43.4889Z" fill="#F1F1F1"/>
<mask id="mask2_2108_17020" style="mask-type:alpha" maskUnits="userSpaceOnUse" x="72" y="30" width="26" height="27">
<path d="M97.6038 43.4889C97.6054 45.5351 97.1075 47.5513 96.1527 49.3653C95.1979 51.1792 93.8145 52.737 92.1208 53.9056C92.0899 53.9275 92.0579 53.9494 92.0259 53.9702C91.8405 54.0971 91.6514 54.2186 91.4587 54.3346C91.1873 54.4987 90.9096 54.653 90.6256 54.7974C90.4535 54.885 90.2802 54.9682 90.1037 55.047C90.0595 55.0667 90.0143 55.0874 89.9691 55.106C89.6612 55.2417 89.3467 55.3654 89.0267 55.4748C88.1909 55.7655 87.3265 55.968 86.4479 56.0789C85.9027 56.1484 85.3535 56.1832 84.8038 56.1828C84.5268 56.1828 84.251 56.1741 83.9784 56.1566C83.74 56.1413 83.5039 56.1205 83.27 56.092C82.8937 56.0472 82.5218 55.987 82.1555 55.9093C82.1434 55.9071 82.1301 55.9038 82.118 55.9016C81.3569 55.742 80.6125 55.5123 79.8945 55.2155C79.6992 55.1345 79.5061 55.0502 79.3163 54.9594C79.0769 54.8478 78.8422 54.7285 78.6123 54.6016C76.6366 53.519 74.9846 51.9376 73.8239 50.0178C72.6632 48.0979 72.035 45.9077 72.0031 43.6694C71.9712 41.4311 72.5366 39.2243 73.6421 37.2726C74.7475 35.3209 76.3537 33.6938 78.2978 32.5562C80.2418 31.4187 82.4546 30.8112 84.7118 30.7952C86.969 30.7793 89.1903 31.3556 91.1504 32.4656C93.1106 33.5756 94.74 35.1799 95.8733 37.1158C97.0066 39.0517 97.6037 41.2504 97.6038 43.4889Z" fill="#F1F1F1"/>
</mask>
<g mask="url(#mask2_2108_17020)">
<path d="M84.4171 44.6828C86.315 44.6828 87.8535 43.157 87.8535 41.2749C87.8535 39.3927 86.315 37.8669 84.4171 37.8669C82.5192 37.8669 80.9807 39.3927 80.9807 41.2749C80.9807 43.157 82.5192 44.6828 84.4171 44.6828Z" fill="#FFB8B8"/>
<path d="M82.9959 56.0739C82.5435 56.0199 82.0964 55.9476 81.656 55.8541L82.0739 46.5288L82.1336 46.467L82.9893 45.571H85.7102L86.7145 46.5354L86.7994 46.6183L88.9472 48.6589L89.917 55.3318C88.9122 55.6813 87.873 55.9247 86.8166 56.0581C86.1611 56.1417 85.5009 56.1834 84.84 56.1831C84.507 56.1831 84.1753 56.1725 83.8476 56.1515C83.561 56.1331 83.2772 56.1081 82.9959 56.0739Z" fill="#CBCBCB"/>
<path d="M78.2424 54.712C77.9546 54.5778 77.6724 54.4344 77.3961 54.2818C77.3682 51.7558 77.3496 50.0783 77.3496 50.0783L77.6733 49.8823C77.6772 49.8803 77.6811 49.8785 77.6852 49.877L81.3587 47.6641L82.1295 46.4221L82.1335 46.4668L82.3603 49.085C83.0435 51.3978 83.5408 53.7606 83.8475 56.1513C83.5609 56.1329 83.2771 56.1079 82.9958 56.0737C82.5434 56.0198 82.0963 55.9474 81.6559 55.854C81.6413 55.8514 81.6254 55.8474 81.6108 55.8448C80.6958 55.6529 79.8008 55.3767 78.9376 55.0199C78.7028 54.9225 78.4706 54.8212 78.2424 54.712Z" fill="#2F2E41"/>
<path d="M89.917 55.3317C88.9121 55.6812 87.8729 55.9246 86.8166 56.0579C86.6702 55.2088 86.6164 54.3464 86.6561 53.4858C86.9426 48.9429 86.282 46.4221 86.5685 46.4221L86.7144 46.5353L88.5174 47.9483L90.8907 48.8113H90.8921L92.5252 49.4047L92.813 49.51V49.6455C92.8143 50.1138 92.817 51.7531 92.8409 53.9608C92.5145 54.1581 92.1807 54.3436 91.8392 54.5173C91.6323 54.6226 91.424 54.7226 91.2118 54.8173C91.1587 54.841 91.1043 54.866 91.0499 54.8883C90.6798 55.0515 90.3017 55.2001 89.917 55.3317Z" fill="#2F2E41"/>
<path d="M81.1661 42.341C81.1661 42.341 81.4581 41.8325 81.3902 40.1338C81.3224 38.4351 83.9307 39.3959 86.1102 39.2338C88.2898 39.0718 87.8284 42.0699 87.8284 42.0699C87.8284 42.0699 87.9856 41.8916 88.3223 40.4447C88.6589 38.9977 87.8946 37.5558 87.8946 37.5558C87.6694 36.0353 86.4562 36.5226 86.4562 36.5226C87.0405 36.7482 86.9283 37.2305 86.9283 37.2305C86.4337 36.3706 85.2204 36.8579 85.2204 36.8579C83.6023 35.8509 81.9624 37.177 81.9624 37.177C80.0076 37.6169 81.154 39.1586 81.154 39.1586C79.1882 40.1438 81.1661 42.341 81.1661 42.341Z" fill="#2F2E41"/>
<path d="M75.7285 53.2213C75.779 52.0649 75.8015 51.3189 75.775 51.215C75.6383 50.6729 77.5036 49.9467 77.6734 49.8822C77.6773 49.8802 77.6812 49.8785 77.6853 49.877L78.0648 50.0783L78.2425 54.712C77.9547 54.5778 77.6725 54.4344 77.3961 54.2817C76.8177 53.9644 76.2607 53.6102 75.7285 53.2213Z" fill="#2F2E41"/>
<path d="M92.8408 53.9608C92.5145 54.1581 92.1806 54.3436 91.8392 54.5173C91.6323 54.6226 91.424 54.7225 91.2118 54.8173C91.1586 54.841 91.1043 54.866 91.0499 54.8883L90.4529 49.0429L90.8018 48.7903C90.8018 48.7903 90.8336 48.7982 90.8906 48.8113H90.892C91.1719 48.8798 92.0316 49.1061 92.5251 49.4047C92.6353 49.4666 92.7329 49.5482 92.813 49.6455C92.8618 49.7035 92.886 49.778 92.8806 49.8533C92.8647 50.0059 93.1301 51.4532 93.5228 53.5227C93.2999 53.6753 93.0726 53.8213 92.8408 53.9608Z" fill="#2F2E41"/>
</g>
<path d="M84.8038 59.074C86.4149 59.074 87.721 57.7788 87.721 56.181C87.721 54.5833 86.4149 53.2881 84.8038 53.2881C83.1928 53.2881 81.8867 54.5833 81.8867 56.181C81.8867 57.7788 83.1928 59.074 84.8038 59.074Z" fill="#1677FF"/>
<path d="M84.5259 57.4023L83.6527 56.2889L84.1605 55.8973L84.5739 56.4244L85.9705 54.9624L86.4375 55.4011L84.5259 57.4023Z" fill="white"/>
<g clip-path="url(#clip3_2108_17020)">
<path d="M84.8028 53.0605C83.0632 53.0605 81.6526 54.4594 81.6526 56.1847C81.6526 57.9099 83.0632 59.3088 84.8028 59.3088C86.5425 59.3088 87.9531 57.9099 87.9531 56.1847C87.9531 54.4594 86.5425 53.0605 84.8028 53.0605ZM86.1529 56.352C86.1529 56.3827 86.1276 56.4078 86.0967 56.4078H85.0279V57.4678C85.0279 57.4985 85.0025 57.5236 84.9716 57.5236H84.6341C84.6031 57.5236 84.5778 57.4985 84.5778 57.4678V56.4078H83.509C83.478 56.4078 83.4527 56.3827 83.4527 56.352V56.0173C83.4527 55.9866 83.478 55.9615 83.509 55.9615H84.5778V54.9016C84.5778 54.8709 84.6031 54.8458 84.6341 54.8458H84.9716C85.0025 54.8458 85.0279 54.8709 85.0279 54.9016V55.9615H86.0967C86.1276 55.9615 86.1529 55.9866 86.1529 56.0173V56.352Z" fill="#0070E0"/>
<path d="M86.3362 56.4492C86.3729 56.4492 86.4029 56.4195 86.4029 56.3831V55.9864C86.4029 55.95 86.3729 55.9203 86.3362 55.9203H85.0694V54.664C85.0694 54.6277 85.0394 54.5979 85.0028 54.5979H84.6027C84.5661 54.5979 84.5361 54.6277 84.5361 54.664V55.9203H83.2693C83.2326 55.9203 83.2026 55.95 83.2026 55.9864V56.3831C83.2026 56.4195 83.2326 56.4492 83.2693 56.4492H84.5361V57.7055C84.5361 57.7419 84.5661 57.7716 84.6027 57.7716H85.0028C85.0394 57.7716 85.0694 57.7419 85.0694 57.7055V56.4492H86.3362Z" fill="white"/>
<path fill-rule="evenodd" clip-rule="evenodd" d="M84.6361 54.6971V56.0195H83.3027V56.3501H84.6361V57.6725H84.9695V56.3501H86.3029V56.0195H84.9695V54.6971H84.6361ZM84.4361 54.6641C84.4361 54.5729 84.5109 54.4988 84.6028 54.4988H85.0028C85.0947 54.4988 85.1695 54.5729 85.1695 54.6641V55.8212H86.3362C86.4281 55.8212 86.5029 55.8953 86.5029 55.9865V56.3832C86.5029 56.4743 86.4281 56.5485 86.3362 56.5485H85.1695V57.7056C85.1695 57.7967 85.0947 57.8709 85.0028 57.8709H84.6028C84.5109 57.8709 84.4361 57.7967 84.4361 57.7056V56.5485H83.2693C83.1774 56.5485 83.1027 56.4743 83.1027 56.3832V55.9865C83.1027 55.8953 83.1774 55.8212 83.2693 55.8212H84.4361V54.6641Z" fill="white"/>
</g>
</g>
<defs>
<clipPath id="clip0_2108_17020">
<rect width="97.2076" height="59.5074" fill="white" transform="translate(0.39624 0.247803)"/>
</clipPath>
<clipPath id="clip1_2108_17020">
<rect width="7.20056" height="7.14088" fill="white" transform="translate(9.59692 52.6143)"/>
</clipPath>
<clipPath id="clip2_2108_17020">
<rect width="7.20056" height="7.14089" fill="white" transform="translate(45.3997 21.6704)"/>
</clipPath>
<clipPath id="clip3_2108_17020">
<rect width="7.20056" height="7.14088" fill="white" transform="translate(81.2025 52.6143)"/>
</clipPath>
</defs>
</svg>
