<svg width="256" height="150" viewBox="0 0 256 150" fill="none" xmlns="http://www.w3.org/2000/svg">
<path opacity="0.8" fill-rule="evenodd" clip-rule="evenodd" d="M48.7328 28.3113C51.3653 20.4214 53.8152 15.5091 56.0784 13.5724C62.3459 8.21211 71.0117 11.1294 72.854 11.5472C79.3261 13.019 77.2217 3.33366 82.7745 1.36496C86.4751 0.0531206 89.5185 1.65669 91.9068 6.17566C94.0211 1.95971 97.2432 0.0286531 101.573 0.373081C108.069 0.894428 110.342 21.6937 119.268 17.1409C128.196 12.5862 139.141 11.5453 143.816 18.3134C144.827 19.7777 145.214 17.506 152.087 9.7498C158.96 1.9917 165.813 -1.42623 179.873 3.09086C186.265 5.14237 191.522 10.704 195.65 19.774C195.65 32.7192 205.695 40.3832 225.782 42.7603C255.917 46.3269 232.526 77.0412 195.65 86.0359C158.771 95.0324 73.8665 99.8883 27.7921 77.1598C-2.92423 62.0106 4.05603 45.7265 48.7309 28.3113H48.7328Z" fill="url(#paint0_linear_8537_105519)"/>
<path d="M126.961 142.706C157.647 142.706 182.523 137.247 182.523 130.514C182.523 123.78 157.647 118.321 126.961 118.321C96.2744 118.321 71.3984 123.78 71.3984 130.514C71.3984 137.247 96.2744 142.706 126.961 142.706Z" fill="url(#paint1_linear_8537_105519)"/>
<path opacity="0.675" fill-rule="evenodd" clip-rule="evenodd" d="M220.765 145.727C178.989 155.661 36.392 144.299 21.2145 139.11C13.8273 136.582 7.16867 131.83 1.24061 124.851C0.577128 124.07 0.160088 123.128 0.0376812 122.132C-0.0847255 121.137 0.0924975 120.129 0.548871 119.225C1.00524 118.321 1.72214 117.557 2.61672 117.023C3.51129 116.489 4.54704 116.206 5.60426 116.206H254.785C259.957 129.264 248.617 139.104 220.765 145.727Z" fill="url(#paint2_linear_8537_105519)"/>
<path d="M189.155 41.6676L171.822 11.6676C171.564 11.2218 171.118 11.001 170.668 11.001C170.218 11.001 169.768 11.2218 169.514 11.6676L152.18 41.6676C151.668 42.5593 152.309 43.6676 153.334 43.6676H188.001C189.026 43.6676 189.668 42.5593 189.155 41.6676ZM169.334 23.3343C169.334 23.151 169.484 23.001 169.668 23.001H171.668C171.851 23.001 172.001 23.151 172.001 23.3343V31.001C172.001 31.1843 171.851 31.3343 171.668 31.3343H169.668C169.484 31.3343 169.334 31.1843 169.334 31.001V23.3343ZM170.668 38.001C170.144 37.9903 169.646 37.7749 169.28 37.401C168.913 37.0271 168.708 36.5245 168.708 36.001C168.708 35.4775 168.913 34.9749 169.28 34.601C169.646 34.2271 170.144 34.0117 170.668 34.001C171.191 34.0117 171.689 34.2271 172.056 34.601C172.422 34.9749 172.627 35.4775 172.627 36.001C172.627 36.5245 172.422 37.0271 172.056 37.401C171.689 37.7749 171.191 37.9903 170.668 38.001Z" fill="#CE3E39"/>
<path d="M166.954 90.6773C166.954 112.775 149.041 130.689 126.943 130.689C104.845 130.689 86.9315 112.775 86.9315 90.6773C86.9315 68.5796 104.845 50.6659 126.943 50.6659C149.041 50.6659 166.954 68.5796 166.954 90.6773Z" fill="#F1F8FE" stroke="#3470B1" stroke-width="6.85714"/>
<path d="M112.463 75.8545C109.608 75.8545 107.294 78.169 107.294 81.024C107.294 83.8791 109.608 86.1935 112.463 86.1935C115.319 86.1935 117.633 83.8791 117.633 81.024C117.633 78.169 115.319 75.8545 112.463 75.8545Z" fill="#3470B1"/>
<path d="M141.423 75.8545C138.568 75.8545 136.254 78.169 136.254 81.024C136.254 83.8791 138.568 86.1935 141.423 86.1935C144.279 86.1935 146.593 83.8791 146.593 81.024C146.593 78.169 144.279 75.8545 141.423 75.8545Z" fill="#3470B1"/>
<path d="M126.943 95.1612C118.757 95.1612 112.121 101.798 112.121 109.984V110.327H117.633V109.984C117.633 104.842 121.801 100.674 126.943 100.674C132.085 100.674 136.254 104.842 136.254 109.984V110.327H141.766V109.984C141.766 101.798 135.13 95.1612 126.943 95.1612Z" fill="#3470B1"/>
<defs>
<linearGradient id="paint0_linear_8537_105519" x1="129.714" y1="69.8784" x2="129.714" y2="-16.1035" gradientUnits="userSpaceOnUse">
<stop stop-color="#DEDEDE" stop-opacity="0"/>
<stop offset="1" stop-color="#A9A9A9" stop-opacity="0.3"/>
</linearGradient>
<linearGradient id="paint1_linear_8537_105519" x1="121.171" y1="142.706" x2="121.171" y2="118.321" gradientUnits="userSpaceOnUse">
<stop stop-color="white" stop-opacity="0"/>
<stop offset="1" stop-color="#96A1C5" stop-opacity="0.373"/>
</linearGradient>
<linearGradient id="paint2_linear_8537_105519" x1="128" y1="149.667" x2="128" y2="109.623" gradientUnits="userSpaceOnUse">
<stop stop-color="white" stop-opacity="0"/>
<stop offset="1" stop-color="#919191" stop-opacity="0.15"/>
</linearGradient>
</defs>
</svg>
