<svg width="256" height="150" viewBox="0 0 256 150" fill="none" xmlns="http://www.w3.org/2000/svg">
<path opacity="0.8" fill-rule="evenodd" clip-rule="evenodd" d="M48.7338 28.3113C51.3663 20.4214 53.8161 15.5091 56.0794 13.5724C62.3469 8.21211 71.0127 11.1294 72.855 11.5472C79.327 13.019 77.2226 3.33366 82.7755 1.36496C86.476 0.0531206 89.5195 1.65669 91.9078 6.17566C94.0221 1.95971 97.2442 0.0286531 101.574 0.373081C108.07 0.894428 110.343 21.6937 119.269 17.1409C128.197 12.5862 139.142 11.5453 143.817 18.3134C144.827 19.7777 145.215 17.506 152.088 9.7498C158.961 1.9917 165.814 -1.42623 179.874 3.09086C186.266 5.14237 191.523 10.704 195.651 19.774C195.651 32.7192 205.696 40.3832 225.783 42.7603C255.918 46.3269 232.527 77.0412 195.651 86.0359C158.772 95.0324 73.8675 99.8883 27.7931 77.1598C-2.92325 62.0106 4.057 45.7265 48.7318 28.3113H48.7338Z" fill="url(#paint0_linear_8537_105603)"/>
<path d="M126.963 142.706C157.649 142.706 182.525 137.247 182.525 130.514C182.525 123.78 157.649 118.321 126.963 118.321C96.2764 118.321 71.4004 123.78 71.4004 130.514C71.4004 137.247 96.2764 142.706 126.963 142.706Z" fill="url(#paint1_linear_8537_105603)"/>
<path opacity="0.675" fill-rule="evenodd" clip-rule="evenodd" d="M220.765 145.727C178.989 155.661 36.392 144.299 21.2145 139.11C13.8273 136.582 7.16867 131.83 1.24061 124.851C0.577128 124.07 0.160088 123.128 0.0376812 122.132C-0.0847255 121.137 0.0924975 120.129 0.548871 119.225C1.00524 118.321 1.72214 117.557 2.61672 117.023C3.51129 116.489 4.54704 116.206 5.60426 116.206H254.785C259.957 129.264 248.617 139.104 220.765 145.727Z" fill="url(#paint2_linear_8537_105603)"/>
<path d="M189.155 41.6676L171.822 11.6676C171.564 11.2218 171.118 11.001 170.668 11.001C170.218 11.001 169.768 11.2218 169.514 11.6676L152.18 41.6676C151.668 42.5593 152.309 43.6676 153.334 43.6676H188.001C189.026 43.6676 189.668 42.5593 189.155 41.6676ZM169.334 23.3343C169.334 23.151 169.484 23.001 169.668 23.001H171.668C171.851 23.001 172.001 23.151 172.001 23.3343V31.001C172.001 31.1843 171.851 31.3343 171.668 31.3343H169.668C169.484 31.3343 169.334 31.1843 169.334 31.001V23.3343ZM170.668 38.001C170.144 37.9903 169.646 37.7749 169.28 37.401C168.913 37.0271 168.708 36.5245 168.708 36.001C168.708 35.4775 168.913 34.9749 169.28 34.601C169.646 34.2271 170.144 34.0117 170.668 34.001C171.191 34.0117 171.689 34.2271 172.056 34.601C172.422 34.9749 172.627 35.4775 172.627 36.001C172.627 36.5245 172.422 37.0271 172.056 37.401C171.689 37.7749 171.191 37.9903 170.668 38.001Z" fill="#CE3E39"/>
<path d="M126.94 91.0505C122.022 91.0505 117.394 89.1327 113.911 85.6505C110.429 82.1684 108.511 77.5398 108.511 72.6219C108.511 67.7041 110.429 63.0755 113.911 59.5934C117.394 56.1112 122.022 54.1934 126.94 54.1934C131.858 54.1934 136.486 56.1112 139.969 59.5934C143.451 63.0755 145.369 67.7041 145.369 72.6219C145.369 77.5398 143.451 82.1684 139.969 85.6505C136.486 89.1327 131.858 91.0505 126.94 91.0505Z" fill="#F1F8FE"/>
<path d="M95.8594 123.061C97.2944 117.644 100.138 112.678 104.204 108.611C110.279 102.536 118.347 99.1934 126.94 99.1934C135.533 99.1934 143.601 102.536 149.676 108.611C153.742 112.678 156.586 117.644 158.021 123.061H95.8594Z" fill="#F1F8FE"/>
<path fill-rule="evenodd" clip-rule="evenodd" d="M155.432 102.846C159.113 106.514 162.046 110.862 164.067 115.65C166.06 120.353 167.121 125.336 167.228 130.457C167.231 130.571 167.211 130.685 167.169 130.792C167.127 130.898 167.064 130.995 166.985 131.077C166.905 131.159 166.809 131.224 166.704 131.268C166.598 131.313 166.485 131.336 166.371 131.336H161.231V131.357H92.6595V131.336H87.5137C87.3993 131.336 87.286 131.313 87.1806 131.268C87.0752 131.224 86.9797 131.159 86.8999 131.077C86.82 130.995 86.7573 130.898 86.7155 130.792C86.6737 130.685 86.6537 130.571 86.6565 130.457C86.7549 125.368 87.8278 120.345 89.8172 115.661C91.8423 110.875 94.7748 106.527 98.4529 102.857C102.149 99.1498 106.457 96.2462 111.257 94.2212C111.278 94.2105 111.299 94.2025 111.321 94.1945C111.342 94.1864 111.364 94.1784 111.385 94.1677C104.71 89.3355 100.371 81.482 100.371 72.6212C100.371 57.9427 112.264 46.0498 126.942 46.0498C141.621 46.0498 153.514 57.9427 153.514 72.6212C153.514 81.482 149.174 89.3355 142.499 94.157C142.521 94.1677 142.542 94.1757 142.564 94.1837C142.585 94.1918 142.607 94.1998 142.628 94.2105C147.413 96.2356 151.761 99.1681 155.432 102.846ZM95.8617 123.06C97.2967 117.643 100.14 112.677 104.207 108.611C110.282 102.536 118.349 99.1927 126.942 99.1927C135.535 99.1927 143.603 102.536 149.678 108.611C153.744 112.677 156.588 117.643 158.023 123.06H95.8617ZM113.914 85.6498C117.396 89.132 122.024 91.0498 126.942 91.0498C131.86 91.0498 136.489 89.132 139.971 85.6498C143.453 82.1677 145.371 77.5391 145.371 72.6212C145.371 67.7034 143.453 63.0748 139.971 59.5927C136.489 56.1105 131.86 54.1927 126.942 54.1927C122.024 54.1927 117.396 56.1105 113.914 59.5927C110.432 63.0748 108.514 67.7034 108.514 72.6212C108.514 77.5391 110.432 82.1677 113.914 85.6498Z" fill="#3470B1"/>
<defs>
<linearGradient id="paint0_linear_8537_105603" x1="129.715" y1="69.8784" x2="129.715" y2="-16.1035" gradientUnits="userSpaceOnUse">
<stop stop-color="#DEDEDE" stop-opacity="0"/>
<stop offset="1" stop-color="#A9A9A9" stop-opacity="0.3"/>
</linearGradient>
<linearGradient id="paint1_linear_8537_105603" x1="121.173" y1="142.706" x2="121.173" y2="118.321" gradientUnits="userSpaceOnUse">
<stop stop-color="white" stop-opacity="0"/>
<stop offset="1" stop-color="#96A1C5" stop-opacity="0.373"/>
</linearGradient>
<linearGradient id="paint2_linear_8537_105603" x1="128" y1="149.667" x2="128" y2="109.623" gradientUnits="userSpaceOnUse">
<stop stop-color="white" stop-opacity="0"/>
<stop offset="1" stop-color="#919191" stop-opacity="0.15"/>
</linearGradient>
</defs>
</svg>
