<svg width="256" height="150" viewBox="0 0 256 150" fill="none" xmlns="http://www.w3.org/2000/svg">
<path opacity="0.8" fill-rule="evenodd" clip-rule="evenodd" d="M48.7328 28.3113C51.3653 20.4214 53.8152 15.5091 56.0784 13.5724C62.3459 8.21211 71.0117 11.1294 72.854 11.5472C79.3261 13.019 77.2217 3.33366 82.7745 1.36496C86.4751 0.0531206 89.5185 1.65669 91.9068 6.17566C94.0211 1.95971 97.2432 0.0286531 101.573 0.373081C108.069 0.894428 110.342 21.6937 119.268 17.1409C128.196 12.5862 139.141 11.5453 143.816 18.3134C144.827 19.7777 145.214 17.506 152.087 9.7498C158.96 1.9917 165.813 -1.42623 179.873 3.09086C186.265 5.14237 191.522 10.704 195.65 19.774C195.65 32.7192 205.695 40.3832 225.782 42.7603C255.917 46.3269 232.526 77.0412 195.65 86.0359C158.771 95.0324 73.8665 99.8883 27.7921 77.1598C-2.92423 62.0106 4.05603 45.7265 48.7309 28.3113H48.7328Z" fill="url(#paint0_linear_8537_101955)"/>
<path d="M126.961 142.706C157.647 142.706 182.523 137.247 182.523 130.514C182.523 123.78 157.647 118.321 126.961 118.321C96.2744 118.321 71.3984 123.78 71.3984 130.514C71.3984 137.247 96.2744 142.706 126.961 142.706Z" fill="url(#paint1_linear_8537_101955)"/>
<path opacity="0.675" fill-rule="evenodd" clip-rule="evenodd" d="M220.765 145.727C178.989 155.661 36.392 144.299 21.2145 139.11C13.8273 136.582 7.16867 131.83 1.24061 124.851C0.577128 124.07 0.160088 123.128 0.0376812 122.132C-0.0847255 121.137 0.0924975 120.129 0.548871 119.225C1.00524 118.321 1.72214 117.557 2.61672 117.023C3.51129 116.489 4.54704 116.206 5.60426 116.206H254.785C259.957 129.264 248.617 139.104 220.765 145.727Z" fill="url(#paint2_linear_8537_101955)"/>
<path d="M189.155 41.6676L171.822 11.6676C171.564 11.2218 171.118 11.001 170.668 11.001C170.218 11.001 169.768 11.2218 169.514 11.6676L152.18 41.6676C151.668 42.5593 152.309 43.6676 153.334 43.6676H188.001C189.026 43.6676 189.668 42.5593 189.155 41.6676ZM169.334 23.3343C169.334 23.151 169.484 23.001 169.668 23.001H171.668C171.851 23.001 172.001 23.151 172.001 23.3343V31.001C172.001 31.1843 171.851 31.3343 171.668 31.3343H169.668C169.484 31.3343 169.334 31.1843 169.334 31.001V23.3343ZM170.668 38.001C170.144 37.9903 169.646 37.7749 169.28 37.401C168.913 37.0271 168.708 36.5245 168.708 36.001C168.708 35.4775 168.913 34.9749 169.28 34.601C169.646 34.2271 170.144 34.0117 170.668 34.001C171.191 34.0117 171.689 34.2271 172.056 34.601C172.422 34.9749 172.627 35.4775 172.627 36.001C172.627 36.5245 172.422 37.0271 172.056 37.401C171.689 37.7749 171.191 37.9903 170.668 38.001Z" fill="#CE3E39"/>
<path d="M171.881 87.3204L82.2556 42.3847C81.8914 42.2026 81.4735 42.1597 81.0771 42.2561C80.6371 42.3649 80.2581 42.6436 80.0232 43.0311C79.7882 43.4187 79.7164 43.8836 79.8235 44.324L89.0592 82.0597C89.1985 82.6276 89.6164 83.0883 90.1735 83.2704L105.999 88.7026L90.1842 94.1347C89.6271 94.3276 89.2092 94.7776 89.0807 95.3454L79.8235 133.135C79.7271 133.531 79.7699 133.949 79.9521 134.303C80.3699 135.149 81.3985 135.492 82.2556 135.074L171.881 90.3954C172.213 90.2347 172.481 89.9561 172.652 89.6347C173.07 88.7776 172.727 87.749 171.881 87.3204Z" fill="#F1F8FE"/>
<path fill-rule="evenodd" clip-rule="evenodd" d="M90.1842 94.1347C89.6271 94.3276 89.2092 94.7776 89.0806 95.3454L79.8235 133.135C79.7271 133.531 79.7699 133.949 79.9521 134.303C80.3699 135.149 81.3985 135.492 82.2556 135.074L171.881 90.3954C172.213 90.2347 172.481 89.9561 172.652 89.6347C173.07 88.7776 172.727 87.749 171.881 87.3204L82.2556 42.3847C81.8914 42.2026 81.4735 42.1597 81.0771 42.2561C80.6371 42.3649 80.2581 42.6436 80.0232 43.0311C79.7882 43.4187 79.7164 43.8836 79.8235 44.324L89.0592 82.0597C89.1985 82.6276 89.6164 83.0883 90.1735 83.2704L105.999 88.7026L90.1842 94.1347ZM89.1293 53.5017L95.0504 77.6946L127.113 88.7004L95.0723 99.7061L89.124 123.988L159.622 88.8447L89.1293 53.5017Z" fill="#3470B1"/>
<defs>
<linearGradient id="paint0_linear_8537_101955" x1="129.714" y1="69.8784" x2="129.714" y2="-16.1035" gradientUnits="userSpaceOnUse">
<stop stop-color="#DEDEDE" stop-opacity="0"/>
<stop offset="1" stop-color="#A9A9A9" stop-opacity="0.3"/>
</linearGradient>
<linearGradient id="paint1_linear_8537_101955" x1="121.171" y1="142.706" x2="121.171" y2="118.321" gradientUnits="userSpaceOnUse">
<stop stop-color="white" stop-opacity="0"/>
<stop offset="1" stop-color="#96A1C5" stop-opacity="0.373"/>
</linearGradient>
<linearGradient id="paint2_linear_8537_101955" x1="128" y1="149.667" x2="128" y2="109.623" gradientUnits="userSpaceOnUse">
<stop stop-color="white" stop-opacity="0"/>
<stop offset="1" stop-color="#919191" stop-opacity="0.15"/>
</linearGradient>
</defs>
</svg>
