<svg width="256" height="150" viewBox="0 0 256 150" fill="none" xmlns="http://www.w3.org/2000/svg">
<path opacity="0.8" fill-rule="evenodd" clip-rule="evenodd" d="M48.7338 28.3113C51.3663 20.4214 53.8161 15.5091 56.0794 13.5724C62.3469 8.21211 71.0127 11.1294 72.855 11.5472C79.327 13.019 77.2226 3.33366 82.7755 1.36496C86.476 0.0531206 89.5195 1.65669 91.9078 6.17566C94.0221 1.95971 97.2442 0.0286531 101.574 0.373081C108.07 0.894428 110.343 21.6937 119.269 17.1409C128.197 12.5862 139.142 11.5453 143.817 18.3134C144.827 19.7777 145.215 17.506 152.088 9.7498C158.961 1.9917 165.814 -1.42623 179.874 3.09086C186.266 5.14237 191.523 10.704 195.651 19.774C195.651 32.7192 205.696 40.3832 225.783 42.7603C255.918 46.3269 232.527 77.0412 195.651 86.0359C158.772 95.0324 73.8675 99.8883 27.7931 77.1598C-2.92325 62.0106 4.057 45.7265 48.7318 28.3113H48.7338Z" fill="url(#paint0_linear_8537_105561)"/>
<path d="M126.963 142.706C157.649 142.706 182.525 137.247 182.525 130.514C182.525 123.78 157.649 118.321 126.963 118.321C96.2764 118.321 71.4004 123.78 71.4004 130.514C71.4004 137.247 96.2764 142.706 126.963 142.706Z" fill="url(#paint1_linear_8537_105561)"/>
<path opacity="0.675" fill-rule="evenodd" clip-rule="evenodd" d="M220.765 145.727C178.989 155.661 36.392 144.299 21.2145 139.11C13.8273 136.582 7.16867 131.83 1.24061 124.851C0.577128 124.07 0.160088 123.128 0.0376812 122.132C-0.0847255 121.137 0.0924975 120.129 0.548871 119.225C1.00524 118.321 1.72214 117.557 2.61672 117.023C3.51129 116.489 4.54704 116.206 5.60426 116.206H254.785C259.957 129.264 248.617 139.104 220.765 145.727Z" fill="url(#paint2_linear_8537_105561)"/>
<path d="M189.155 41.6676L171.822 11.6676C171.564 11.2218 171.118 11.001 170.668 11.001C170.218 11.001 169.768 11.2218 169.514 11.6676L152.18 41.6676C151.668 42.5593 152.309 43.6676 153.334 43.6676H188.001C189.026 43.6676 189.668 42.5593 189.155 41.6676ZM169.334 23.3343C169.334 23.151 169.484 23.001 169.668 23.001H171.668C171.851 23.001 172.001 23.151 172.001 23.3343V31.001C172.001 31.1843 171.851 31.3343 171.668 31.3343H169.668C169.484 31.3343 169.334 31.1843 169.334 31.001V23.3343ZM170.668 38.001C170.144 37.9903 169.646 37.7749 169.28 37.401C168.913 37.0271 168.708 36.5245 168.708 36.001C168.708 35.4775 168.913 34.9749 169.28 34.601C169.646 34.2271 170.144 34.0117 170.668 34.001C171.191 34.0117 171.689 34.2271 172.056 34.601C172.422 34.9749 172.627 35.4775 172.627 36.001C172.627 36.5245 172.422 37.0271 172.056 37.401C171.689 37.7749 171.191 37.9903 170.668 38.001Z" fill="#CE3E39"/>
<g clip-path="url(#clip0_8537_105561)">
<path d="M140.66 47.5635H168.088V74.9921H140.66V47.5635Z" fill="#F1F8FE"/>
<path d="M85.8027 74.9921H113.231V102.421H85.8027V74.9921Z" fill="#F1F8FE"/>
<path d="M154.374 129.849C161.948 129.849 168.088 123.709 168.088 116.135C168.088 108.561 161.948 102.421 154.374 102.421C146.8 102.421 140.66 108.561 140.66 116.135C140.66 123.709 146.8 129.849 154.374 129.849Z" fill="#F1F8FE"/>
<path fill-rule="evenodd" clip-rule="evenodd" d="M169.919 77.9944H141.27C140.39 77.9944 139.677 77.1594 139.677 76.1287V63.0817H130.919V92.8942H114.204V105.485C114.204 106.515 113.491 107.35 112.611 107.35H83.9626C83.0823 107.35 82.3691 106.515 82.3691 105.485V71.9276C82.3691 70.8969 83.0823 70.0619 83.9626 70.0619H112.622C113.502 70.0619 114.215 70.8969 114.215 71.9276V84.518H123.765V55.6188C123.765 55.11 124.121 54.6925 124.556 54.6925H139.677V42.5718C139.677 41.5411 140.39 40.7061 141.27 40.7061H169.919C170.799 40.7061 171.512 41.5411 171.512 42.5718V76.1287C171.512 77.1594 170.799 77.9944 169.919 77.9944ZM147.232 49.565H163.946V69.1486H147.232V49.565ZM106.649 98.5044H89.9351V78.9338H106.649V98.5044Z" fill="#3470B1"/>
<path fill-rule="evenodd" clip-rule="evenodd" d="M170.107 117.3L173.336 120.086C173.833 120.519 174.016 121.215 173.794 121.827L173.75 121.956C172.858 124.464 171.537 126.772 169.822 128.817L169.733 128.921C169.526 129.168 169.25 129.345 168.941 129.429C168.632 129.514 168.305 129.501 168.003 129.394L163.996 127.956C162.526 129.178 160.866 130.147 159.082 130.821L158.308 135.05C158.25 135.368 158.097 135.661 157.87 135.889C157.643 136.118 157.352 136.271 157.037 136.329L156.904 136.353C154.312 136.824 151.659 136.824 149.067 136.353L148.934 136.329C148.619 136.271 148.328 136.118 148.101 135.889C147.874 135.661 147.721 135.368 147.663 135.05L146.884 130.802C145.115 130.13 143.473 129.165 142.005 127.946L137.968 129.394C137.666 129.501 137.339 129.513 137.031 129.428C136.722 129.344 136.445 129.167 136.238 128.921L136.15 128.817C134.434 126.777 133.114 124.464 132.221 121.956L132.177 121.827C132.068 121.523 132.054 121.192 132.136 120.879C132.218 120.566 132.392 120.286 132.635 120.076L135.903 117.26C135.75 116.33 135.676 115.375 135.676 114.419C135.676 113.469 135.75 112.514 135.903 111.579L132.635 108.763C132.138 108.33 131.955 107.634 132.177 107.012L132.221 106.883C133.112 104.376 134.443 102.053 136.15 100.022L136.238 99.9178C136.445 99.6711 136.721 99.4937 137.03 99.4093C137.339 99.3249 137.666 99.3374 137.968 99.4451L142.005 100.893C143.466 99.6786 145.114 98.714 146.884 98.0373L147.663 93.7888C147.721 93.4706 147.874 93.1779 148.101 92.9495C148.328 92.7211 148.619 92.5679 148.934 92.5102L149.067 92.4854C151.635 92.0177 154.336 92.0177 156.904 92.4854L157.037 92.5102C157.352 92.5679 157.643 92.7211 157.87 92.9495C158.097 93.1779 158.25 93.4706 158.308 93.7888L159.082 98.0174C160.866 98.6939 162.517 99.6591 163.996 100.883L168.003 99.4451C168.305 99.3382 168.632 99.3262 168.94 99.4106C169.249 99.4949 169.526 99.6718 169.733 99.9178L169.822 100.022C171.53 102.051 172.861 104.375 173.75 106.883L173.794 107.012C173.903 107.316 173.917 107.647 173.835 107.96C173.753 108.272 173.579 108.553 173.336 108.763L170.107 111.549C170.26 112.494 170.339 113.459 170.339 114.424C170.339 115.389 170.26 116.355 170.107 117.3ZM155.615 120.329C156.448 119.981 157.203 119.47 157.839 118.826C159.131 117.516 159.848 115.78 159.848 113.932C159.849 113.023 159.672 112.122 159.328 111.282C158.983 110.442 158.477 109.679 157.839 109.037C156.541 107.727 154.821 107.01 152.99 107.01C151.16 107.01 149.439 107.727 148.141 109.037C146.85 110.348 146.133 112.084 146.133 113.932C146.132 114.841 146.309 115.742 146.653 116.581C146.998 117.421 147.504 118.184 148.141 118.826C149.439 120.13 151.16 120.853 152.99 120.853C153.891 120.855 154.783 120.676 155.615 120.329Z" fill="#3470B1"/>
</g>
<defs>
<linearGradient id="paint0_linear_8537_105561" x1="129.715" y1="69.8784" x2="129.715" y2="-16.1035" gradientUnits="userSpaceOnUse">
<stop stop-color="#DEDEDE" stop-opacity="0"/>
<stop offset="1" stop-color="#A9A9A9" stop-opacity="0.3"/>
</linearGradient>
<linearGradient id="paint1_linear_8537_105561" x1="121.173" y1="142.706" x2="121.173" y2="118.321" gradientUnits="userSpaceOnUse">
<stop stop-color="white" stop-opacity="0"/>
<stop offset="1" stop-color="#96A1C5" stop-opacity="0.373"/>
</linearGradient>
<linearGradient id="paint2_linear_8537_105561" x1="128" y1="149.667" x2="128" y2="109.623" gradientUnits="userSpaceOnUse">
<stop stop-color="white" stop-opacity="0"/>
<stop offset="1" stop-color="#919191" stop-opacity="0.15"/>
</linearGradient>
<clipPath id="clip0_8537_105561">
<rect width="96" height="96" fill="white" transform="translate(78.9434 40.7061)"/>
</clipPath>
</defs>
</svg>
