<svg width="14" height="15" viewBox="0 0 14 15" fill="none" xmlns="http://www.w3.org/2000/svg">
<path d="M3.36055 5.8396C3.03838 5.8396 2.77722 6.10077 2.77722 6.42293C2.77722 6.7451 3.03838 7.00627 3.36055 7.00627H3.89714V9.40939C3.89714 9.73156 4.1583 9.99273 4.48047 9.99273C4.80264 9.99273 5.0638 9.73156 5.0638 9.40939V7.00627H5.60039C5.92256 7.00627 6.18373 6.7451 6.18373 6.42293C6.18373 6.10077 5.92256 5.8396 5.60039 5.8396H3.36055Z" fill="#2D2D2D"/>
<path fill-rule="evenodd" clip-rule="evenodd" d="M4.67735 3.84863C4.64634 3.65788 4.63676 3.46328 4.64944 3.26845C4.68251 2.7603 4.86554 2.27337 5.17539 1.86926C5.48524 1.46515 5.90797 1.16201 6.39013 0.998184C6.87228 0.83436 7.39219 0.817213 7.88409 0.948912C8.37599 1.08061 8.81778 1.35524 9.15358 1.73806C9.19361 1.78369 9.23191 1.83061 9.26845 1.87873C9.44264 1.78324 9.63002 1.71119 9.82588 1.66545C10.2869 1.55778 10.7704 1.60164 11.2045 1.79051C11.6386 1.97939 12.0003 2.30321 12.2358 2.71392C12.4713 3.12463 12.5681 3.60033 12.5118 4.07041C12.4792 4.34288 12.3962 4.60505 12.2687 4.84421H12.4008C12.6331 4.84421 12.8558 4.93648 13.0201 5.10071C13.1843 5.26495 13.2766 5.4877 13.2766 5.71997V9.40949C13.2766 10.0922 13.0053 10.747 12.5226 11.2298C12.104 11.6484 11.556 11.908 10.9726 11.9696C10.7702 12.4553 10.4736 12.9018 10.0942 13.2812C9.33143 14.044 8.29684 14.4725 7.21806 14.4725H7.21764C6.34178 14.4719 5.48944 14.189 4.78702 13.6658C4.20326 13.2309 3.7489 12.6494 3.46776 11.9837H1.24514C0.648077 11.9837 0.164062 11.4997 0.164062 10.9026V4.92971C0.164062 4.33265 0.648077 3.84863 1.24514 3.84863H4.67735ZM6.76546 2.10283C7.0291 2.01325 7.31339 2.00387 7.58236 2.07589C7.85133 2.1479 8.09291 2.29807 8.27652 2.50739C8.38489 2.63094 8.4702 2.77181 8.52939 2.92328C8.53668 2.94918 8.54578 2.97464 8.55667 2.99946C8.58333 3.08128 8.60256 3.16574 8.6139 3.25186C8.65025 3.52793 8.60391 3.80857 8.48075 4.05829C8.46881 4.0825 8.4562 4.10631 8.44294 4.1297C8.25093 3.95508 7.99579 3.84863 7.7158 3.84863H5.87262C5.8228 3.68629 5.8025 3.51542 5.81364 3.34422C5.83173 3.06636 5.93181 2.80011 6.10123 2.57914C6.27066 2.35817 6.50181 2.19241 6.76546 2.10283ZM5.48009 5.0153C5.49012 5.01556 5.50018 5.01556 5.51024 5.0153H7.63021V5.1499C7.63008 5.157 7.63008 5.1641 7.63021 5.17121V10.817H3.8856C3.88 10.817 3.87439 10.817 3.86877 10.817H1.33073V5.0153H5.48009ZM4.78352 11.9837C4.96985 12.2702 5.20641 12.5234 5.48395 12.7301C5.9852 13.1035 6.59342 13.3054 7.21844 13.3058C7.98765 13.3057 8.72536 13.0001 9.26928 12.4562C9.8133 11.9122 10.1189 11.1743 10.1189 10.405V6.01088H8.79688V10.9026C8.79688 11.4997 8.31286 11.9837 7.7158 11.9837H4.78352ZM9.77058 3.09955C9.76407 3.05009 9.75613 3.00092 9.7468 2.95211C9.85079 2.88175 9.96739 2.83046 10.0912 2.80154C10.3079 2.75095 10.5351 2.77156 10.7391 2.86032C10.9431 2.94908 11.113 3.10125 11.2237 3.29426C11.3344 3.48727 11.3799 3.71082 11.3534 3.93173C11.327 4.15263 11.23 4.35913 11.0769 4.52056C10.9238 4.68198 10.7227 4.78974 10.5035 4.82783C10.2843 4.86593 10.0587 4.83232 9.86009 4.73201C9.7464 4.67459 9.64504 4.59705 9.5605 4.5039C9.76059 4.06522 9.83367 3.57862 9.77058 3.09955ZM11.2856 10.405V6.01088H12.1099V9.40949C12.1099 9.78282 11.9616 10.1409 11.6976 10.4048C11.5746 10.5279 11.4311 10.6258 11.2752 10.6952C11.2821 10.599 11.2856 10.5021 11.2856 10.405Z" fill="#2D2D2D"/>
</svg>
