<svg width="20" height="20" viewBox="0 0 20 20" fill="none" xmlns="http://www.w3.org/2000/svg">
<g filter="url(#filter0_ii_6213_133206)">
<g clip-path="url(#clip0_6213_133206)">
<rect width="20" height="20" rx="1.875" fill="#0067AB"/>
<path d="M5.9214 12.6594C5.9214 12.886 5.9462 13.0525 5.99578 13.1587C6.04536 13.2579 6.13745 13.3287 6.27203 13.3712C6.4137 13.4137 6.63682 13.435 6.9414 13.435C6.96265 13.435 6.97328 13.4562 6.97328 13.4987C6.97328 13.5412 6.96265 13.5625 6.9414 13.5625C6.65099 13.5625 6.42432 13.559 6.2614 13.5519L5.33703 13.5412L4.5614 13.5519C4.41974 13.559 4.22849 13.5625 3.98765 13.5625C3.9664 13.5625 3.95578 13.5412 3.95578 13.4987C3.95578 13.4562 3.9664 13.435 3.98765 13.435C4.21432 13.435 4.37724 13.4173 4.4764 13.3819C4.58265 13.3465 4.65349 13.2792 4.6889 13.18C4.72432 13.0737 4.74203 12.9144 4.74203 12.7019V7.7825C4.74203 7.57 4.72432 7.41417 4.6889 7.315C4.65349 7.21583 4.58265 7.14854 4.4764 7.11312C4.37015 7.07062 4.20724 7.04937 3.98765 7.04937C3.9664 7.04937 3.95578 7.02812 3.95578 6.98562C3.95578 6.94312 3.9664 6.92188 3.98765 6.92188L4.55078 6.9325C4.87661 6.94667 5.13515 6.95375 5.3264 6.95375C5.4964 6.95375 5.69828 6.94312 5.93203 6.92188C6.02411 6.91479 6.14099 6.90771 6.28265 6.90062C6.42432 6.89354 6.58724 6.89 6.7714 6.89C7.4939 6.89 8.06411 7.04229 8.48203 7.34687C8.89995 7.64437 9.1089 8.10833 9.1089 8.73875C9.1089 9.17792 8.99557 9.54979 8.7689 9.85437C8.54224 10.159 8.24828 10.3892 7.88703 10.545C7.53286 10.7008 7.16807 10.7787 6.79265 10.7787C6.6014 10.7787 6.43495 10.761 6.29328 10.7256C6.27911 10.7256 6.27203 10.7079 6.27203 10.6725C6.27203 10.6512 6.27557 10.63 6.28265 10.6087C6.29682 10.5875 6.31099 10.5804 6.32515 10.5875C6.4314 10.6158 6.55182 10.63 6.6864 10.63C7.01224 10.63 7.2814 10.4777 7.4939 10.1731C7.71349 9.86854 7.82328 9.43646 7.82328 8.87687C7.82328 8.31729 7.70286 7.88521 7.46203 7.58062C7.22828 7.27604 6.88474 7.12375 6.4314 7.12375C6.23307 7.12375 6.09849 7.16979 6.02765 7.26187C5.95682 7.35396 5.9214 7.53458 5.9214 7.80375V12.6594ZM11.348 7.995C11.348 8.25 11.4117 8.47667 11.5392 8.675C11.6738 8.87333 11.8367 9.04687 12.028 9.19562C12.2192 9.34437 12.4777 9.525 12.8036 9.7375C13.1577 9.96417 13.4411 10.1625 13.6536 10.3325C13.8661 10.5025 14.0467 10.7115 14.1955 10.9594C14.3442 11.2002 14.4186 11.48 14.4186 11.7987C14.4186 12.1671 14.3194 12.4965 14.1211 12.7869C13.9227 13.0702 13.6465 13.2933 13.2923 13.4562C12.9452 13.6121 12.5557 13.69 12.1236 13.69C11.8048 13.69 11.4719 13.6475 11.1248 13.5625C10.7777 13.4704 10.544 13.3712 10.4236 13.265C10.3882 13.2367 10.3598 13.2119 10.3386 13.1906C10.3244 13.1623 10.3173 13.1198 10.3173 13.0631L10.2855 11.3737V11.3631C10.2855 11.3348 10.3032 11.3206 10.3386 11.3206C10.374 11.3135 10.3952 11.3242 10.4023 11.3525C10.6148 11.7846 10.799 12.1352 10.9548 12.4044C11.1177 12.6735 11.3196 12.9108 11.5605 13.1162C11.8084 13.3217 12.0882 13.4244 12.3998 13.4244C12.6832 13.4244 12.9169 13.35 13.1011 13.2012C13.2852 13.0454 13.3773 12.7833 13.3773 12.415C13.3773 12.1033 13.3065 11.8306 13.1648 11.5969C13.0302 11.3631 12.8638 11.1648 12.6655 11.0019C12.4671 10.839 12.1944 10.6442 11.8473 10.4175C11.5073 10.1979 11.2417 10.0102 11.0505 9.85437C10.8663 9.69854 10.7069 9.51083 10.5723 9.29125C10.4377 9.07167 10.3705 8.81312 10.3705 8.51562C10.3705 8.14021 10.4767 7.825 10.6892 7.57C10.9088 7.30792 11.1886 7.11667 11.5286 6.99625C11.8686 6.86875 12.2263 6.805 12.6017 6.805C12.8496 6.805 13.1011 6.82979 13.3561 6.87937C13.6111 6.92187 13.8165 6.975 13.9723 7.03875C14.0361 7.06708 14.0786 7.09896 14.0998 7.13437C14.1211 7.16271 14.1317 7.20167 14.1317 7.25125V8.81312C14.1317 8.83437 14.114 8.85208 14.0786 8.86625C14.0432 8.87333 14.0219 8.86625 14.0148 8.845L13.9298 8.64312C13.7527 8.19687 13.5438 7.81792 13.303 7.50625C13.0692 7.19458 12.7398 7.03875 12.3148 7.03875C12.0315 7.03875 11.7977 7.12021 11.6136 7.28312C11.4365 7.44604 11.348 7.68333 11.348 7.995Z" fill="white"/>
<g style="mix-blend-mode:lighten" opacity="0.6" filter="url(#filter1_f_6213_133206)">
<circle r="9.375" fill="white"/>
</g>
</g>
</g>
<defs>
<filter id="filter0_ii_6213_133206" x="-6.25" y="-6.25" width="26.25" height="26.25" filterUnits="userSpaceOnUse" color-interpolation-filters="sRGB">
<feFlood flood-opacity="0" result="BackgroundImageFix"/>
<feBlend mode="normal" in="SourceGraphic" in2="BackgroundImageFix" result="shape"/>
<feColorMatrix in="SourceAlpha" type="matrix" values="0 0 0 0 0 0 0 0 0 0 0 0 0 0 0 0 0 0 127 0" result="hardAlpha"/>
<feMorphology radius="1.5625" operator="erode" in="SourceAlpha" result="effect1_innerShadow_6213_133206"/>
<feOffset dx="-6.25" dy="-6.25"/>
<feGaussianBlur stdDeviation="3.125"/>
<feComposite in2="hardAlpha" operator="arithmetic" k2="-1" k3="1"/>
<feColorMatrix type="matrix" values="0 0 0 0 0 0 0 0 0 0 0 0 0 0 0 0 0 0 0.16 0"/>
<feBlend mode="normal" in2="shape" result="effect1_innerShadow_6213_133206"/>
<feColorMatrix in="SourceAlpha" type="matrix" values="0 0 0 0 0 0 0 0 0 0 0 0 0 0 0 0 0 0 127 0" result="hardAlpha"/>
<feMorphology radius="0.3125" operator="erode" in="SourceAlpha" result="effect2_innerShadow_6213_133206"/>
<feOffset dx="-0.15625" dy="-0.15625"/>
<feGaussianBlur stdDeviation="0.78125"/>
<feComposite in2="hardAlpha" operator="arithmetic" k2="-1" k3="1"/>
<feColorMatrix type="matrix" values="0 0 0 0 0 0 0 0 0 0 0 0 0 0 0 0 0 0 0.32 0"/>
<feBlend mode="normal" in2="effect1_innerShadow_6213_133206" result="effect2_innerShadow_6213_133206"/>
</filter>
<filter id="filter1_f_6213_133206" x="-18.75" y="-18.75" width="37.5" height="37.5" filterUnits="userSpaceOnUse" color-interpolation-filters="sRGB">
<feFlood flood-opacity="0" result="BackgroundImageFix"/>
<feBlend mode="normal" in="SourceGraphic" in2="BackgroundImageFix" result="shape"/>
<feGaussianBlur stdDeviation="4.6875" result="effect1_foregroundBlur_6213_133206"/>
</filter>
<clipPath id="clip0_6213_133206">
<rect width="20" height="20" rx="1.875" fill="white"/>
</clipPath>
</defs>
</svg>
