<svg width="98" height="60" viewBox="0 0 98 60" fill="none" xmlns="http://www.w3.org/2000/svg">
<g clip-path="url(#clip0_6344_100755)">
<path d="M60.1758 42.4312H37.0907C35.1503 42.4312 33.5717 40.8656 33.5717 38.9413V16.0475C33.5717 14.1232 35.1503 12.5576 37.0907 12.5576H60.1758C62.1162 12.5576 63.6949 14.1232 63.6949 16.0475V38.9413C63.6949 40.8656 62.1162 42.4312 60.1758 42.4312ZM37.0907 13.116C35.4582 13.116 34.1347 14.4285 34.1347 16.0475V38.9413C34.1347 40.5603 35.4582 41.8728 37.0907 41.8728H53.2612C58.7126 41.8728 63.1318 37.4902 63.1318 32.084V16.0475C63.1318 14.4285 61.8084 13.116 60.1758 13.116L37.0907 13.116Z" fill="#FFD591"/>
<path d="M39.5806 15.4971C38.488 15.4971 37.5991 16.3785 37.5991 17.4621V20.5378C37.5991 21.6213 38.488 22.5028 39.5806 22.5028H42.6819C43.7745 22.5028 44.6634 21.6213 44.6634 20.5378V17.4621C44.6634 16.3785 43.7745 15.4971 42.6819 15.4971H39.5806Z" fill="#FFE7BA"/>
<path d="M39.5795 24.1553C38.4869 24.1553 37.598 25.0367 37.598 26.1203V29.196C37.598 30.2795 38.4869 31.161 39.5795 31.161H42.6808C43.7734 31.161 44.6623 30.2795 44.6623 29.196V26.1203C44.6623 25.0367 43.7734 24.1553 42.6808 24.1553H39.5795Z" fill="#FFE7BA"/>
<path d="M39.5795 32.8145C38.4869 32.8145 37.598 33.6959 37.598 34.7795V37.8551C37.598 38.9387 38.4869 39.8201 39.5795 39.8201H42.6808C43.7734 39.8201 44.6623 38.9387 44.6623 37.8551V34.7795C44.6623 33.6959 43.7734 32.8145 42.6808 32.8145H39.5795Z" fill="#FFE7BA"/>
<g clip-path="url(#clip1_6344_100755)">
<path d="M37.7855 9.46055L34.0477 3.04491C33.992 2.94957 33.8959 2.90234 33.7989 2.90234C33.7018 2.90234 33.6048 2.94957 33.55 3.04491L29.8122 9.46055C29.7017 9.65124 29.84 9.88826 30.0611 9.88826H37.5366C37.7577 9.88826 37.8961 9.65124 37.7855 9.46055ZM33.5113 5.53988C33.5113 5.50068 33.5437 5.4686 33.5832 5.4686H34.0145C34.054 5.4686 34.0864 5.50068 34.0864 5.53988V7.17944C34.0864 7.21864 34.054 7.25072 34.0145 7.25072H33.5832C33.5437 7.25072 33.5113 7.21864 33.5113 7.17944V5.53988ZM33.7989 8.67642C33.686 8.67413 33.5785 8.62807 33.4995 8.54811C33.4205 8.46814 33.3763 8.36066 33.3763 8.24871C33.3763 8.13676 33.4205 8.02928 33.4995 7.94931C33.5785 7.86935 33.686 7.82328 33.7989 7.821C33.9117 7.82328 34.0192 7.86935 34.0982 7.94931C34.1772 8.02928 34.2214 8.13676 34.2214 8.24871C34.2214 8.36066 34.1772 8.46814 34.0982 8.54811C34.0192 8.62807 33.9117 8.67413 33.7989 8.67642V8.67642Z" fill="#FA8C16"/>
</g>
<path d="M54.5017 18.8232C53.125 18.8232 52.005 19.9339 52.005 21.2992V25.1746C52.005 26.5399 53.125 27.6506 54.5017 27.6506H58.4095C59.7862 27.6506 60.9062 26.5399 60.9062 25.1746V21.2992C60.9062 19.9339 59.7862 18.8232 58.4095 18.8232H54.5017Z" fill="#FFC069"/>
<path d="M48.9084 57.831L48.1145 57.8243L47.7631 54.7168L48.9347 54.7266L48.9084 57.831Z" fill="#A0616A"/>
<path d="M46.3655 59.0824C46.3638 59.2762 46.5213 59.4357 46.7174 59.4375L48.2958 59.4506L48.5721 58.8951L48.6736 59.4534L49.2692 59.4587L49.1188 57.4675L48.9116 57.4538L48.0664 57.396L47.7938 57.3779L47.789 57.9413L46.521 58.7942C46.4246 58.8592 46.3665 58.9669 46.3655 59.0824Z" fill="#2F2E41"/>
<path d="M52.9475 57.831L52.1537 57.8243L51.8022 54.7168L52.9739 54.7266L52.9475 57.831Z" fill="#A0616A"/>
<path d="M50.4047 59.0824C50.403 59.2762 50.5605 59.4357 50.7566 59.4375L52.335 59.4506L52.6113 58.8951L52.7128 59.4534L53.3084 59.4587L53.158 57.4675L52.9508 57.4538L52.1056 57.396L51.8329 57.3779L51.8282 57.9413L50.5602 58.7942C50.4637 58.8592 50.4056 58.9669 50.4047 59.0824Z" fill="#2F2E41"/>
<path d="M45.7931 32.707L49.0111 32.8078L52.0597 33.4797C52.0597 33.4797 51.7549 33.8492 52.7711 34.857C52.7711 34.857 54.126 37.2085 53.1775 39.4928L52.7711 48.63C52.7711 48.63 53.9562 55.0711 53.0507 57.1211L51.8539 57.1953L49.8288 48.7043L48.8417 39.56L48.3675 48.5628C48.3675 48.5628 50.1817 54.7422 49.0361 57.1953L47.7399 57.1211L45.5221 48.5628C45.5221 48.5628 44.5737 38.6865 44.7092 36.8053C44.8447 34.9242 45.7931 32.707 45.7931 32.707Z" fill="#2F2E41"/>
<path d="M56.5998 18.2684C56.1599 18.3814 55.8956 18.8266 56.0095 19.2629C56.0617 19.4628 56.1847 19.6254 56.3445 19.7329L56.3444 19.734L56.282 21.233L57.4387 21.7639L57.5311 19.4571L57.523 19.4574C57.6233 19.2802 57.658 19.0661 57.6026 18.8538C57.4887 18.4176 57.0397 18.1555 56.5998 18.2684Z" fill="#A0616A"/>
<path d="M50.1348 23.6185C49.8918 23.3797 49.7508 23.0558 49.7455 22.7036C49.7384 22.2312 49.9772 21.8024 50.3841 21.5566C50.8527 21.2736 51.4387 21.3022 51.8771 21.6295L55.5094 24.3417L56.1566 20.4346L57.5462 20.8782L57.2146 25.9659C57.1914 26.3217 56.9886 26.6352 56.6721 26.8045C56.3555 26.9737 55.98 26.9695 55.6674 26.7931L50.4182 23.8314C50.3127 23.7719 50.2178 23.7001 50.1348 23.6185Z" fill="#3F3D56"/>
<path d="M44.5961 16.0827C44.8283 16.4701 44.6999 16.9708 44.3093 17.2011C44.1303 17.3066 43.9275 17.3362 43.7378 17.301L43.737 17.3018L42.7171 18.4099L41.5188 17.9792L43.0909 16.2766L43.0964 16.2824C43.151 16.0866 43.2784 15.9103 43.4684 15.7983C43.859 15.568 44.3639 15.6954 44.5961 16.0827Z" fill="#A0616A"/>
<path d="M45.0367 24.3495L39.2062 22.7876C38.8591 22.6946 38.5894 22.4354 38.4848 22.0942C38.3801 21.753 38.4587 21.3888 38.6949 21.1199L42.0714 17.2754L43.3731 17.9306L41.0589 21.1571L45.5639 21.7672C46.1075 21.8409 46.544 22.2297 46.6758 22.7579C46.7903 23.2166 46.6554 23.6878 46.315 24.0183C46.0612 24.2647 45.7312 24.3963 45.3891 24.3962C45.2722 24.3962 45.1538 24.3809 45.0367 24.3495Z" fill="#3F3D56"/>
<path d="M53.349 34.0512L45.1959 34.4221C44.972 34.0849 45.0326 33.5778 45.3462 32.9428C46.5302 30.5453 45.631 26.0098 45.0261 23.6481C44.8564 22.9855 45.312 22.3267 45.9979 22.2587L46.7667 22.1825L47.4773 20.0312H49.966L50.9984 21.201L52.7506 22.2566C52.4317 25.5146 51.0728 30.1151 53.0087 32.4222C53.4322 32.9268 53.5522 33.4725 53.349 34.0512Z" fill="#3F3D56"/>
<path d="M48.405 20.0804C49.7438 20.0804 50.8291 19.0041 50.8291 17.6764C50.8291 16.3488 49.7438 15.2725 48.405 15.2725C47.0663 15.2725 45.981 16.3488 45.981 17.6764C45.981 19.0041 47.0663 20.0804 48.405 20.0804Z" fill="#A0616A"/>
<path d="M51.1481 16.1376C51.4854 14.9182 47.8095 13.8725 47.0952 14.8545C46.9959 14.7149 46.6288 14.6301 46.4604 14.6729C46.292 14.7158 46.1503 14.8228 46.0121 14.9265C45.8221 15.0712 45.6252 15.2211 45.5086 15.4293C45.3911 15.6366 45.373 15.9192 45.5311 16.0991C45.6563 16.2421 45.8764 17.0023 46.0647 17.0399C46.1959 17.0665 46.3065 17.0879 46.4015 17.1033C46.4861 16.9808 46.702 16.827 46.6864 16.6788C46.8143 16.7627 46.7676 16.9104 46.7418 17.0614C46.656 17.564 44.7225 21.4547 45.8299 20.3082C45.9396 20.3724 46.0752 20.4324 46.2315 20.4872C46.4967 20.0906 46.7143 19.6229 46.8577 19.1338L46.8587 19.1429C46.9081 19.5679 47.2213 19.9167 47.6357 20.0357C49.2979 20.5133 50.6425 19.8125 51.1051 18.5488C50.9358 18.2079 50.862 18.2449 50.8772 18.2348C51.0885 18.0935 51.379 18.1859 51.4699 18.4221C51.4967 18.4917 51.521 18.5512 51.5421 18.5959C51.7831 17.7411 52.0697 17.8644 51.1481 16.1376Z" fill="#2F2E41"/>
<path d="M50.0014 15.2537L49.8316 14.3929C49.8173 14.3205 49.8038 14.242 49.8367 14.1759C49.8789 14.0909 49.9876 14.0557 50.0822 14.0692C50.1767 14.0828 50.2474 14.1684 50.3415 14.1849C50.6686 14.2423 51.1009 13.9219 51.2181 14.7324C51.267 15.0703 51.8108 15.106 51.9924 15.3961C52.174 15.6861 52.1963 16.1048 51.9484 16.3417C51.7505 16.5309 51.4326 16.5528 51.1755 16.4561C50.9185 16.3594 50.7121 16.1642 50.5319 15.9583C50.3517 15.7524 50.1885 15.5295 49.9806 15.3511" fill="#2F2E41"/>
<path d="M51.2776 16.5631C50.6143 16.4712 50.1622 16.232 49.9338 15.8521C49.6349 15.3548 49.8351 14.8073 49.8438 14.7842L49.984 14.8359C49.9821 14.8409 49.8005 15.3421 50.0631 15.7774C50.2674 16.116 50.683 16.3309 51.2983 16.4162L51.2776 16.5631Z" fill="#0070E0"/>
<path d="M64.4376 7.26083C62.4875 7.26083 60.9009 5.68731 60.9009 3.75346C60.9009 1.81961 62.4875 0.246094 64.4376 0.246094C66.3876 0.246094 67.9742 1.81961 67.9742 3.75346C67.9742 5.68731 66.3876 7.26083 64.4376 7.26083ZM64.4376 1.64904C63.2674 1.64904 62.3156 2.59302 62.3156 3.75346C62.3156 4.9139 63.2674 5.85788 64.4376 5.85788C65.6077 5.85788 66.5596 4.9139 66.5596 3.75346C66.5596 2.59302 65.6077 1.64904 64.4376 1.64904Z" fill="#FFC069"/>
<path d="M69.8791 9.64465C69.7057 9.64465 69.532 9.58197 69.3956 9.45489L66.0761 6.36985C65.7908 6.10509 65.7763 5.66118 66.0437 5.37861C66.3103 5.095 66.7579 5.08096 67.0432 5.34641L70.3626 8.43145C70.6479 8.69622 70.6624 9.14012 70.3951 9.4227C70.2559 9.57032 70.0677 9.64465 69.8791 9.64465Z" fill="#FFC069"/>
<path d="M74.834 57.752C75.0745 57.767 75.2074 57.4706 75.0255 57.2979L75.0074 57.2266C75.0097 57.2208 75.0121 57.2151 75.0145 57.2094C75.2578 56.6343 76.082 56.6383 76.3232 57.2143C76.5372 57.7255 76.8097 58.2375 76.8768 58.7781C76.9069 59.0167 76.8933 59.2597 76.8399 59.4939C77.3414 58.4075 77.6054 57.2212 77.6054 56.0281C77.6054 55.7284 77.5888 55.4286 77.555 55.1296C77.5272 54.885 77.4888 54.642 77.4392 54.4011C77.1708 53.0992 76.5896 51.8592 75.7512 50.8235C75.3482 50.605 75.0121 50.2635 74.8091 49.8542C74.7362 49.7065 74.679 49.5477 74.652 49.3859C74.6978 49.3919 74.8249 48.6992 74.7903 48.6567C74.8542 48.5605 74.9686 48.5127 75.0384 48.4188C75.3856 47.952 75.8639 48.0335 76.1136 48.6678C76.6471 48.9348 76.6522 49.3776 76.3249 49.8035C76.1167 50.0744 76.0881 50.441 75.9054 50.731C75.9242 50.7549 75.9437 50.778 75.9625 50.8019C76.3072 51.2403 76.6053 51.7116 76.8567 52.2067C76.7856 51.6565 76.8905 50.9936 77.0693 50.5663C77.2728 50.0794 77.6542 49.6694 77.9901 49.2485C78.3936 48.7429 79.221 48.9635 79.2921 49.6044C79.2927 49.6106 79.2934 49.6168 79.2941 49.623C79.2442 49.6509 79.1953 49.6806 79.1476 49.7119C78.8752 49.8905 78.9693 50.3092 79.292 50.3586L79.2993 50.3597C79.2813 50.5379 79.2505 50.7146 79.2054 50.8884C79.6363 52.5411 78.7059 53.143 77.3775 53.1701C77.3482 53.185 77.3196 53.1999 77.2903 53.214C77.4249 53.5899 77.5324 53.9754 77.6121 54.3661C77.6835 54.7113 77.7332 55.0603 77.761 55.4107C77.7956 55.8529 77.7926 56.2973 77.755 56.7387L77.7572 56.7231C77.8527 56.2369 78.1189 55.7828 78.5054 55.4681C79.0811 54.9991 79.8945 54.8264 80.5156 54.4494C80.8145 54.2679 81.1977 54.5025 81.1455 54.8462L81.1429 54.8627C81.0505 54.9 80.9602 54.9432 80.873 54.9917C80.8231 55.0196 80.7742 55.0492 80.7265 55.0806C80.4542 55.2592 80.5483 55.6779 80.871 55.7273L80.8783 55.7284C80.8835 55.7291 80.8881 55.7299 80.8933 55.7306C80.7347 56.1042 80.5136 56.4509 80.2369 56.7499C79.9675 58.1926 78.8102 58.3295 77.5723 57.9094H77.5715C77.4362 58.494 77.2384 59.0651 76.9843 59.6095H74.8866C74.879 59.5863 74.8723 59.5625 74.8655 59.5394C75.0595 59.5513 75.255 59.5401 75.446 59.5051C75.2903 59.3157 75.1347 59.1248 74.979 58.9354C74.9753 58.9317 74.9723 58.9279 74.9693 58.9242C74.8903 58.8273 74.8106 58.7311 74.7317 58.6342L74.7316 58.634C74.7267 58.3365 74.7627 58.0398 74.834 57.752Z" fill="#F2F2F2"/>
<path d="M16.7975 59.6159C16.7975 59.6921 16.8592 59.7533 16.936 59.7533H80.9954C81.0722 59.7533 81.1339 59.6921 81.1339 59.6159C81.1339 59.5397 81.0722 59.4785 80.9954 59.4785H16.936C16.8592 59.4785 16.7975 59.5397 16.7975 59.6159Z" fill="#CCCCCC"/>
</g>
<defs>
<clipPath id="clip0_6344_100755">
<rect width="97.2076" height="59.5074" fill="white" transform="translate(0.39624 0.246094)"/>
</clipPath>
<clipPath id="clip1_6344_100755">
<rect width="9.20072" height="9.12446" fill="white" transform="translate(29.1985 1.83301)"/>
</clipPath>
</defs>
</svg>
