<svg width="14" height="14" viewBox="0 0 14 14" fill="none" xmlns="http://www.w3.org/2000/svg">
<path fill-rule="evenodd" clip-rule="evenodd" d="M10.4998 2.99857V1.74857C10.4998 1.19701 10.0513 0.748573 9.49977 0.748573H4.49976C3.9482 0.748573 3.49976 1.19701 3.49976 1.74857V2.99857H1.49976C1.2232 2.99857 0.999763 3.22201 0.999763 3.49857V3.99857C0.999763 4.06732 1.05601 4.12357 1.12476 4.12357H2.06851L2.45445 12.2954C2.47945 12.8283 2.92008 13.2486 3.45289 13.2486H6.74934L7.5 12.1236H3.5732L3.19508 4.12357H10.8045L10.6212 8L11.7475 8.00979L11.931 4.12357H12.8748C12.9435 4.12357 12.9998 4.06732 12.9998 3.99857V3.49857C12.9998 3.22201 12.7763 2.99857 12.4998 2.99857H10.4998ZM4.62476 1.87357H9.37476V2.99857H4.62476V1.87357Z" fill="#474543"/>
<path fill-rule="evenodd" clip-rule="evenodd" d="M11.0197 9.10156L13.6604 13.6719C13.7384 13.8077 13.6407 13.9766 13.4845 13.9766H8.20329C8.04713 13.9766 7.94938 13.8077 8.02746 13.6719L10.6681 9.10156C10.7068 9.03364 10.7754 9 10.8439 9C10.9125 9 10.9804 9.03364 11.0197 9.10156ZM10.6916 10.8281C10.6636 10.8281 10.6408 10.851 10.6408 10.8789V12.0469C10.6408 12.0748 10.6636 12.0977 10.6916 12.0977H10.9963C11.0242 12.0977 11.047 12.0748 11.047 12.0469V10.8789C11.047 10.851 11.0242 10.8281 10.9963 10.8281H10.6916ZM10.6325 13.0219C10.6883 13.0788 10.7642 13.1117 10.8439 13.1133C10.9236 13.1117 10.9996 13.0788 11.0554 13.0219C11.1112 12.9649 11.1424 12.8883 11.1424 12.8086C11.1424 12.7288 11.1112 12.6523 11.0554 12.5953C10.9996 12.5384 10.9236 12.5055 10.8439 12.5039C10.7642 12.5055 10.6883 12.5384 10.6325 12.5953C10.5766 12.6523 10.5454 12.7288 10.5454 12.8086C10.5454 12.8883 10.5766 12.9649 10.6325 13.0219Z" fill="#474543"/>
</svg>
