<svg width="14" height="14" viewBox="0 0 14 14" fill="none" xmlns="http://www.w3.org/2000/svg">
  <path d="M6.53113 1.37573H7.46863C7.55196 1.37573 7.59363 1.4174 7.59363 1.50073V6.40698H12.2502C12.3336 6.40698 12.3752 6.44865 12.3752 6.53198V7.46948C12.3752 7.55282 12.3336 7.59448 12.2502 7.59448H7.59363V12.5007C7.59363 12.5841 7.55196 12.6257 7.46863 12.6257H6.53113C6.44779 12.6257 6.40613 12.5841 6.40613 12.5007V7.59448H1.75024C1.66691 7.59448 1.62524 7.55282 1.62524 7.46948V6.53198C1.62524 6.44865 1.66691 6.40698 1.75024 6.40698H6.40613V1.50073C6.40613 1.4174 6.44779 1.37573 6.53113 1.37573Z" fill="#0057ad"/>
  <path fill-rule="evenodd" clip-rule="evenodd" d="M13.6604 13.6719L11.0197 9.10156C10.9804 9.03364 10.9125 9 10.8439 9C10.7754 9 10.7068 9.03364 10.6681 9.10156L8.02746 13.6719C7.94938 13.8077 8.04713 13.9766 8.20329 13.9766H13.4845C13.6407 13.9766 13.7384 13.8077 13.6604 13.6719ZM10.6408 10.8789C10.6408 10.851 10.6636 10.8281 10.6916 10.8281H10.9963C11.0242 10.8281 11.047 10.851 11.047 10.8789V12.0469C11.047 12.0748 11.0242 12.0977 10.9963 12.0977H10.6916C10.6636 12.0977 10.6408 12.0748 10.6408 12.0469V10.8789ZM10.8439 13.1133C10.7642 13.1117 10.6883 13.0788 10.6325 13.0219C10.5766 12.9649 10.5454 12.8883 10.5454 12.8086C10.5454 12.7288 10.5766 12.6523 10.6325 12.5953C10.6883 12.5384 10.7642 12.5055 10.8439 12.5039C10.9236 12.5055 10.9996 12.5384 11.0554 12.5953C11.1112 12.6523 11.1424 12.7288 11.1424 12.8086C11.1424 12.8883 11.1112 12.9649 11.0554 13.0219C10.9996 13.0788 10.9236 13.1117 10.8439 13.1133Z" fill="#0057ad"/>
</svg>
