<svg width="98" height="60" viewBox="0 0 98 60" fill="none" xmlns="http://www.w3.org/2000/svg">
<path d="M31.6917 45.4693H81.4335C81.7184 45.4694 82.0005 45.4137 82.2637 45.3056C82.5268 45.1975 82.766 45.0391 82.9674 44.8393C83.1688 44.6395 83.3286 44.4024 83.4376 44.1414C83.5466 43.8804 83.6027 43.6007 83.6027 43.3182V14.7923C83.6031 14.6017 83.5775 14.4118 83.5267 14.228C83.4019 13.7722 83.1293 13.3699 82.751 13.0831C82.3727 12.7963 81.9097 12.641 81.4335 12.6411H62.005C61.5518 13.3982 61.2724 14.2452 61.187 15.1216C60.9459 17.6695 62.4191 20.025 63.7372 22.2258C65.0553 24.4265 66.3124 26.9854 65.6143 29.45C65.1423 31.1122 63.8632 32.3152 62.276 33.0363C60.751 33.7055 59.0735 33.9589 57.4167 33.7702C56.4216 33.6456 55.4414 33.4236 54.4904 33.1077C53.2433 32.706 52.0252 32.1853 50.8091 31.6587C50.8081 31.6587 50.8081 31.6587 50.8071 31.6577C50.7861 31.6488 50.7641 31.6388 50.7431 31.6299C49.8021 31.2223 48.862 30.8137 47.9079 30.4537C46.79 30.0201 45.6297 29.703 44.4457 29.5075C42.6465 29.2278 40.8324 29.329 39.2272 30.1383C36.611 31.4563 35.2089 34.3048 34.1118 37.0044C33.0038 39.7338 32.0107 42.5545 31.6917 45.4693Z" fill="#08979C"/>
<path d="M14.4973 34.5566V43.3181C14.4973 43.6006 14.5534 43.8804 14.6624 44.1414C14.7714 44.4024 14.9312 44.6395 15.1326 44.8393C15.334 45.039 15.5732 45.1975 15.8364 45.3056C16.0995 45.4137 16.3816 45.4693 16.6665 45.4693H24.9351C25.0781 44.1472 24.9581 42.8301 24.4331 41.6013C23.289 38.9215 20.5208 37.3366 17.8816 36.0642C16.7725 35.5296 15.6444 35.0139 14.4973 34.5566Z" fill="#08979C"/>
<path d="M23.1627 43.4462C23.1627 44.0167 23.3913 44.5639 23.7981 44.9673C24.2049 45.3707 24.7566 45.5974 25.3319 45.5974H33.6005C33.7435 44.2753 33.6235 42.9582 33.0985 41.7294C32.8295 41.0994 32.2012 40.4014 31.3825 39.6965C28.1704 36.9305 23.1627 39.2275 23.1627 43.4462Z" fill="#08979C"/>
<path d="M14.3973 43.3182V14.7924C14.398 14.1957 14.6373 13.6237 15.0627 13.2019C15.4881 12.78 16.0649 12.5427 16.6665 12.542H81.4336C82.0352 12.5427 82.612 12.78 83.0374 13.2019C83.4628 13.6237 83.7021 14.1957 83.7028 14.7924V43.3182C83.7021 43.9148 83.4628 44.4868 83.0374 44.9087C82.612 45.3306 82.0352 45.5679 81.4336 45.5686H16.6665C16.0649 45.5679 15.4881 45.3306 15.0627 44.9087C14.6373 44.4868 14.398 43.9148 14.3973 43.3182ZM16.6665 12.7404C16.1179 12.741 15.592 12.9573 15.2041 13.342C14.8162 13.7267 14.598 14.2483 14.5974 14.7924V43.3182C14.598 43.8622 14.8161 44.3838 15.2041 44.7685C15.592 45.1532 16.1179 45.3696 16.6665 45.3702H81.4336C81.9822 45.3696 82.5081 45.1532 82.896 44.7685C83.2839 44.3838 83.5021 43.8622 83.5027 43.3182V14.7924C83.5021 14.2483 83.2839 13.7267 82.896 13.342C82.5081 12.9573 81.9822 12.741 81.4336 12.7404H16.6665Z" fill="#3F3D56"/>
<path d="M35.8301 45.3989H38.7713C39.2743 43.7192 40.0004 41.9387 40.6635 40.3161C41.9356 37.205 43.5607 33.9224 46.5939 32.4034C47.889 31.7548 49.3011 31.5014 50.7432 31.5152C52.7354 31.534 54.7836 32.0643 56.6587 32.7671C57.4258 33.054 58.1858 33.3694 58.9429 33.6918C61.7951 34.9072 64.6163 36.2311 67.6836 36.5889C71.5649 37.0414 76.1282 35.3193 77.1883 31.6099C77.9974 28.7699 76.5403 25.8215 75.0121 23.2851C73.484 20.7487 71.7759 18.0349 72.0549 15.0984C72.0559 15.0885 72.0569 15.0777 72.0589 15.0678C72.1639 14.013 72.799 13.255 73.686 12.769H69.8237C69.7727 15.5085 71.3709 17.9265 72.809 20.314C74.3371 22.8494 75.7942 25.7988 74.9851 28.6388C73.9251 32.3472 65.1471 28.0002 61.2658 27.5467C60.1697 27.4195 61.9108 27.872 60.8657 27.5467C59.2266 27.0371 59.0449 31.7114 57.4498 31.0253C56.4567 30.5975 55.4626 30.1726 54.4555 29.7951C54.0385 29.6383 53.6125 29.4915 53.1814 29.3554C53.1804 29.3554 53.1804 29.3554 53.1794 29.3544C50.2852 28.4456 47.12 28.0917 44.4458 29.4057C44.4278 29.4146 44.4087 29.4234 44.3907 29.4323C41.3575 30.9504 39.7324 34.233 38.4603 37.344C37.4092 39.9159 36.3481 42.6861 35.8301 45.3989Z" fill="#3F3D56"/>
<path d="M35.862 24.9526H16.7313C16.5746 24.9526 16.4242 25.0144 16.3134 25.1243C16.2025 25.2342 16.1403 25.3833 16.1403 25.5388C16.1403 25.6942 16.2025 25.8433 16.3134 25.9533C16.4242 26.0632 16.5746 26.1249 16.7313 26.1249H35.862C36.0187 26.1249 36.169 26.0632 36.2799 25.9533C36.3907 25.8433 36.453 25.6942 36.453 25.5388C36.453 25.3833 36.3907 25.2342 36.2799 25.1243C36.169 25.0144 36.0187 24.9526 35.862 24.9526Z" fill="#3F3D56"/>
<path d="M22.6761 21.666H16.7446C16.5879 21.666 16.4375 21.7278 16.3267 21.8377C16.2158 21.9476 16.1536 22.0967 16.1536 22.2522C16.1536 22.4076 16.2158 22.5567 16.3267 22.6666C16.4375 22.7766 16.5879 22.8383 16.7446 22.8383H22.6761C22.8329 22.8383 22.9832 22.7766 23.0941 22.6666C23.2049 22.5567 23.2672 22.4076 23.2672 22.2522C23.2672 22.0967 23.2049 21.9476 23.0941 21.8377C22.9832 21.7278 22.8329 21.666 22.6761 21.666Z" fill="#3F3D56"/>
<path d="M45.5496 55.9776L44.3371 55.9675L43.8004 51.2217L45.5898 51.2367L45.5496 55.9776Z" fill="#FFB6B6"/>
<path d="M41.666 57.8897C41.665 58.0322 41.7209 58.1693 41.8217 58.271C41.9224 58.3727 42.0597 58.4305 42.2034 58.4319L44.614 58.4519L45.036 57.6036L45.191 58.4562L46.1005 58.4644L45.8709 55.4234L45.5544 55.4025L44.2637 55.3143L43.8473 55.2866L43.84 56.147L41.9036 57.4496C41.831 57.4984 41.7715 57.5639 41.7301 57.6406C41.6888 57.7173 41.6668 57.8027 41.666 57.8897Z" fill="#2F2E41"/>
<path d="M57.8505 55.9776L56.638 55.9675L56.1013 51.2217L57.8907 51.2367L57.8505 55.9776Z" fill="#FFB6B6"/>
<path d="M53.9669 57.8897C53.9659 58.0322 54.0218 58.1693 54.1226 58.271C54.2233 58.3727 54.3606 58.4305 54.5043 58.4319L56.9149 58.4519L57.3369 57.6036L57.4919 58.4562L58.4014 58.4644L58.1718 55.4234L57.8553 55.4025L56.5646 55.3143L56.1482 55.2866L56.1409 56.147L54.2045 57.4496C54.1319 57.4984 54.0724 57.5639 54.031 57.6406C53.9897 57.7173 53.9677 57.8027 53.9669 57.8897Z" fill="#2F2E41"/>
<path d="M44.0539 17.9718L49.5106 13.8071C49.7412 13.63 49.8924 13.3701 49.9315 13.0834C49.9706 12.7967 49.8945 12.5062 49.7195 12.2747C49.629 12.155 49.5149 12.0547 49.3841 11.9801C49.2532 11.9055 49.1084 11.8582 48.9585 11.8409C48.8086 11.8236 48.6568 11.8368 48.5121 11.8796C48.3675 11.9224 48.2333 11.994 48.1175 12.0899L42.583 16.5883L39.1039 19.1811C38.9317 19.0818 38.7329 19.0375 38.5345 19.0542C38.3361 19.0709 38.1476 19.1478 37.9948 19.2744C37.8419 19.401 37.7321 19.5712 37.6801 19.7618C37.6282 19.9525 37.6368 20.1544 37.7046 20.3401C37.7724 20.5258 37.8962 20.6863 38.0592 20.7998C38.2222 20.9133 38.4164 20.9742 38.6156 20.9744C38.8147 20.9746 39.0091 20.914 39.1723 20.8008C39.3355 20.6876 39.4596 20.5273 39.5277 20.3417L44.0539 17.9718Z" fill="#FFB6B6"/>
<path d="M48.5013 18.9293L48.2607 24.2566L56.43 25.2369C55.7872 23.0963 54.733 20.123 55.2161 18.6333L48.5013 18.9293Z" fill="#A0616A"/>
<path d="M53.145 9.1626H50.6286L49.5479 10.9965L49.0329 10.9683C48.0294 11.3516 47.6293 11.7483 47.0755 12.8053L45.1292 14.4262L46.6293 16.2114C47.6654 16.043 48.039 15.2454 47.71 13.7805C47.71 13.7805 46.5753 15.7416 48.2098 16.7064C48.2098 16.7064 47.9183 18.5242 48.2098 18.5046C48.5013 18.4851 49.1728 18.1152 48.5013 18.4851C47.8298 18.8551 47.9449 18.871 47.9668 18.9909C48.3294 20.972 48.6294 22.4597 48.6294 22.4597L55.73 23.1539C55.73 23.1539 55.3208 18.8954 55.3431 18.6532C55.3653 18.4111 55.2161 19.003 55.3653 18.4111C55.5145 17.8192 55.7384 18.0412 55.5145 17.8192C55.2907 17.5972 57.0531 17.4061 56.3653 16.3394L58.6655 15.7443L57.3798 12.7138C57.3798 11.6906 55.7227 10.8612 54.6909 10.8612H54.5587L53.145 9.1626Z" fill="#E6E6E6"/>
<path d="M55.8228 22.3493C53.0449 23.2969 50.544 23.0888 48.4294 21.2695C48.4294 21.2695 47.8343 23.4515 47.2318 23.1539C46.6292 22.8564 46.927 23.689 46.7615 23.9942C46.5858 24.3183 46.7898 24.865 46.2095 25.0508C45.6292 25.2367 45.8472 25.7829 45.6593 26.1849C44.3446 28.9981 42.8432 32.9801 41.8289 38.0308C40.7866 43.2207 43.329 51.9158 43.329 51.9158L45.7292 51.7175L46.3292 40.4111L49.0737 35.632C49.0737 35.632 50.422 34.8535 49.5757 34.4585C48.7294 34.0636 49.2964 33.5742 49.913 33.6701C50.5296 33.7661 51.2296 30.5924 51.2296 30.5924C50.3505 32.7834 55.83 52.1142 55.83 52.1142L58.1301 51.9158L56.83 24.9392L55.8228 22.3493Z" fill="#2F2E41"/>
<path d="M54.6384 4.55852C54.9112 5.23227 55.6808 6.55722 55.7851 7.28002L55.7381 7.23426C55.6486 7.38588 55.5469 7.53009 55.434 7.66547C55.2316 7.45469 54.9872 7.28802 54.7163 7.17608C54.8643 7.47709 54.9499 7.80443 54.9683 8.13879C54.4673 8.57144 53.1878 8.31041 52.5486 8.54098C51.5198 8.91113 50.4276 9.0429 49.3492 9.15234C48.9664 9.19141 48.5379 9.21514 48.2697 8.99083C48.0015 8.76652 48.1612 8.35113 48.0169 8.03695C46.989 5.79902 47.9376 4.99159 48.7436 3.97683C48.921 3.75352 48.9203 3.42027 49.1361 3.2072C49.4355 2.91187 49.8946 2.82103 50.3178 2.74826C50.2079 2.75401 50.0983 2.73159 49.9996 2.68317C49.9009 2.63474 49.8165 2.56194 49.7544 2.47178C49.7 2.38094 49.6719 2.27694 49.6732 2.17127C49.6746 2.06559 49.7053 1.96234 49.7621 1.8729C49.9134 1.62404 50.228 1.47933 50.5314 1.44318C50.8304 1.42305 51.1306 1.44865 51.4217 1.51908C51.6103 1.54368 51.7929 1.60156 51.9609 1.68998C52.0402 1.73192 52.1046 1.79686 52.1457 1.87611C52.1867 1.95536 52.2024 2.04514 52.1906 2.13347C52.1653 2.21503 52.1218 2.28988 52.0633 2.35243C52.0048 2.41498 51.9328 2.46363 51.8526 2.49473C51.7305 2.54595 51.602 2.58084 51.4705 2.59846C52.0743 2.52077 52.6875 2.62722 53.2287 2.90366C53.907 3.26247 54.3647 3.88512 54.6384 4.55852Z" fill="#2F2E41"/>
<path d="M50.9656 8.33586C52.3047 8.33586 53.3902 7.25933 53.3902 5.93136C53.3902 4.60339 52.3047 3.52686 50.9656 3.52686C49.6265 3.52686 48.541 4.60339 48.541 5.93136C48.541 7.25933 49.6265 8.33586 50.9656 8.33586Z" fill="#FFB6B6"/>
<path d="M53.2987 4.64227C53.1581 5.06362 52.7564 5.19939 52.3851 5.28407C52.268 5.31113 52.1502 5.33635 52.0313 5.35879C51.9874 5.30441 51.9408 5.2511 51.892 5.20073C51.6897 4.98995 51.4452 4.82328 51.1743 4.71133C51.2915 4.94911 51.3693 5.204 51.4049 5.46627C51.1805 5.49857 50.9547 5.52497 50.7278 5.54546C50.5358 5.58599 50.3354 5.55181 50.168 5.44999C50.0007 5.34817 49.8792 5.18648 49.8286 4.99834C49.622 5.33342 49.3777 5.64898 49.0436 5.78209C48.8526 5.85017 48.6446 5.85576 48.4501 5.79806C48.2556 5.74036 48.0848 5.62239 47.9629 5.46144C47.7628 5.21937 47.6513 4.89415 47.5712 4.58028C47.4764 4.20715 47.4237 3.77733 47.6099 3.54059C47.759 3.34899 48.0163 3.34555 48.2536 3.36255C48.7775 3.4024 49.2959 3.4956 49.8006 3.64067L49.8433 3.73594C49.7566 3.21922 49.9447 2.72207 50.2928 2.54527C50.5275 2.42705 50.81 2.44688 51.0845 2.47086C51.437 2.48646 51.7853 2.55326 52.1183 2.66913C52.5003 2.81485 52.8275 3.07406 53.0553 3.41129C53.2989 3.7781 53.42 4.27838 53.2987 4.64227Z" fill="#2F2E41"/>
<path d="M49.8423 2.39491C49.8662 2.38791 49.8042 2.3969 49.8257 2.39747C49.815 2.39686 49.8044 2.39539 49.794 2.39307C49.7922 2.39272 49.7681 2.38508 49.7841 2.39069C49.7481 2.38001 49.716 2.35922 49.6916 2.33083C49.6346 2.26098 49.59 2.18212 49.5594 2.09755C49.5209 1.9858 49.459 1.88338 49.3777 1.79704C49.3546 1.77406 49.3264 1.75681 49.2954 1.74667C49.2643 1.73653 49.2313 1.7338 49.199 1.73869C49.1667 1.74358 49.136 1.75596 49.1094 1.77482C49.0828 1.79369 49.0611 1.8185 49.046 1.84725C48.9988 1.95084 49.0419 2.07848 49.0756 2.18022C49.1103 2.28593 49.1621 2.38538 49.2288 2.47476C49.3405 2.6209 49.4927 2.73165 49.6668 2.79351C49.8684 2.8661 50.0882 2.87233 50.2935 2.81127C50.3207 2.80011 50.344 2.78136 50.3605 2.75731C50.3771 2.73325 50.3863 2.70494 50.3869 2.67581C50.3876 2.64669 50.3797 2.618 50.3642 2.59326C50.3486 2.56851 50.3262 2.54877 50.2996 2.53644L49.957 2.39739C49.939 2.38952 49.9196 2.38525 49.8999 2.38483C49.8802 2.3844 49.8606 2.38783 49.8423 2.39491C49.8239 2.40199 49.8071 2.41259 49.7929 2.4261C49.7787 2.43961 49.7673 2.45577 49.7593 2.47365C49.7514 2.49153 49.7471 2.51079 49.7467 2.53032C49.7462 2.54985 49.7497 2.56928 49.7568 2.58748C49.764 2.60569 49.7746 2.62233 49.7883 2.63644C49.8019 2.65055 49.8182 2.66187 49.8362 2.66974L50.1788 2.80879L50.1848 2.53396C50.1421 2.5462 50.0981 2.55365 50.0537 2.55619C50.0063 2.5609 49.9585 2.5589 49.9117 2.55025C49.8668 2.54442 49.8227 2.53377 49.7802 2.51847C49.753 2.50861 49.7263 2.49739 49.7002 2.48484C49.6907 2.48028 49.6814 2.47554 49.6721 2.47063C49.6727 2.47099 49.6329 2.44797 49.6504 2.45878C49.6061 2.43071 49.5645 2.3986 49.5262 2.36287C49.5127 2.3502 49.5002 2.33645 49.489 2.32177C49.4694 2.29799 49.4514 2.27311 49.4348 2.24724C49.401 2.19246 49.3743 2.13372 49.3552 2.07239C49.3465 2.04661 49.3391 2.0204 49.3332 1.99386C49.3315 1.97929 49.3289 1.96486 49.3252 1.95065C49.3125 1.9168 49.3276 1.97042 49.313 1.98508L49.2499 2.03123C49.238 2.03473 49.2255 2.03554 49.2133 2.0336C49.2011 2.03166 49.1895 2.02702 49.1793 2.02002C49.1718 2.00958 49.1734 2.01131 49.1842 2.02522C49.1967 2.04158 49.2082 2.05871 49.2185 2.07651C49.2411 2.11842 49.2616 2.16143 49.2798 2.2054C49.3175 2.2989 49.3652 2.38814 49.422 2.47161C49.4776 2.55603 49.5587 2.62087 49.6537 2.6569C49.7487 2.69292 49.8527 2.69828 49.951 2.67222C49.9879 2.65766 50.0175 2.62931 50.0335 2.59329C50.0495 2.55726 50.0505 2.51645 50.0364 2.47965C50.0214 2.44339 49.9928 2.41431 49.9566 2.39851C49.9204 2.38272 49.8794 2.38143 49.8423 2.39491Z" fill="#2F2E41"/>
<path d="M46.0607 28.5191C50.02 28.5191 53.2297 25.336 53.2297 21.4095C53.2297 17.4829 50.02 14.2998 46.0607 14.2998C42.1013 14.2998 38.8916 17.4829 38.8916 21.4095C38.8916 25.336 42.1013 28.5191 46.0607 28.5191Z" fill="white"/>
<path d="M46.0607 28.6183C44.623 28.6183 43.2176 28.1956 42.0222 27.4034C40.8268 26.6113 39.8951 25.4855 39.345 24.1682C38.7948 22.851 38.6508 21.4015 38.9313 20.0032C39.2118 18.6048 39.9041 17.3203 40.9207 16.3121C41.9373 15.3039 43.2325 14.6174 44.6425 14.3392C46.0526 14.061 47.5142 14.2038 48.8424 14.7494C50.1707 15.295 51.306 16.219 52.1047 17.4045C52.9034 18.5899 53.3298 19.9837 53.3298 21.4095C53.3276 23.3207 52.5611 25.1531 51.1983 26.5045C49.8356 27.856 47.9879 28.6162 46.0607 28.6183ZM46.0607 14.399C44.6626 14.399 43.2958 14.8102 42.1333 15.5805C40.9708 16.3508 40.0648 17.4457 39.5297 18.7267C38.9947 20.0077 38.8547 21.4173 39.1275 22.7772C39.4002 24.1371 40.0735 25.3863 41.0621 26.3667C42.0508 27.3471 43.3104 28.0148 44.6816 28.2853C46.0529 28.5558 47.4743 28.4169 48.766 27.8863C50.0577 27.3557 51.1617 26.4572 51.9384 25.3043C52.7152 24.1514 53.1298 22.796 53.1298 21.4095C53.1276 19.5508 52.3822 17.7689 51.0569 16.4547C49.7317 15.1404 47.9349 14.4011 46.0607 14.399Z" fill="#3F3D56"/>
<path d="M45.0827 25.1096C44.9589 25.1096 44.8368 25.081 44.7261 25.0261C44.6153 24.9712 44.519 24.8914 44.4448 24.7932L42.4889 22.207C42.4261 22.1239 42.3804 22.0294 42.3544 21.9288C42.3284 21.8281 42.3227 21.7235 42.3375 21.6206C42.3523 21.5178 42.3874 21.4189 42.4407 21.3296C42.4941 21.2402 42.5647 21.1621 42.6485 21.0998C42.7322 21.0375 42.8276 20.9922 42.929 20.9664C43.0305 20.9406 43.136 20.9349 43.2397 20.9496C43.3434 20.9643 43.4431 20.9991 43.5332 21.052C43.6233 21.1049 43.702 21.1749 43.7649 21.258L45.0444 22.9499L48.3309 18.0612C48.3889 17.9747 48.4636 17.9005 48.5506 17.8427C48.6377 17.7849 48.7353 17.7447 48.838 17.7243C48.9407 17.704 49.0464 17.7039 49.1492 17.724C49.2519 17.7442 49.3496 17.7842 49.4368 17.8418C49.5239 17.8994 49.5987 17.9735 49.657 18.0598C49.7153 18.1461 49.7558 18.2429 49.7764 18.3447C49.7969 18.4466 49.797 18.5514 49.7767 18.6533C49.7564 18.7552 49.716 18.8521 49.6579 18.9385L45.7463 24.7574C45.6755 24.8626 45.5803 24.9495 45.4687 25.0108C45.3571 25.072 45.2324 25.1058 45.1049 25.1093C45.0975 25.1095 45.0901 25.1096 45.0827 25.1096Z" fill="#08979C"/>
<path d="M38.1641 58.5345C38.164 58.55 38.1671 58.5654 38.173 58.5797C38.179 58.5941 38.1878 58.6071 38.1988 58.6181C38.2099 58.6291 38.223 58.6377 38.2375 58.6437C38.2519 58.6496 38.2674 58.6526 38.2831 58.6525H63.6141C63.6456 58.6525 63.6759 58.6401 63.6982 58.618C63.7205 58.5958 63.7331 58.5658 63.7331 58.5345C63.7331 58.5032 63.7205 58.4732 63.6982 58.4511C63.6759 58.4289 63.6456 58.4165 63.6141 58.4165H38.2831C38.2674 58.4165 38.2519 58.4195 38.2375 58.4254C38.223 58.4313 38.2099 58.44 38.1988 58.451C38.1878 58.4619 38.179 58.475 38.173 58.4893C38.1671 58.5036 38.164 58.519 38.1641 58.5345Z" fill="#CCCCCC"/>
<path d="M60.5921 21.6526L58.2486 15.2318C58.1485 14.9601 57.9447 14.7382 57.6811 14.6142C57.4175 14.4902 57.1154 14.4739 56.8398 14.5689C56.6973 14.618 56.5663 14.6954 56.4549 14.7964C56.3435 14.8973 56.254 15.0197 56.1919 15.1561C56.1297 15.2925 56.0962 15.44 56.0935 15.5897C56.0907 15.7393 56.1186 15.8879 56.1757 16.0265L58.8162 22.6221L60.2503 26.6969C60.1026 26.8295 59.9997 27.0039 59.9554 27.1964C59.9112 27.389 59.9278 27.5904 60.003 27.7733C60.0782 27.9561 60.2083 28.1116 60.3757 28.2186C60.5431 28.3256 60.7397 28.3789 60.9387 28.3712C61.1377 28.3635 61.3295 28.2953 61.488 28.1758C61.6466 28.0562 61.7641 27.8912 61.8248 27.7031C61.8855 27.515 61.8863 27.3129 61.8271 27.1243C61.7679 26.9357 61.6517 26.7698 61.4941 26.649L60.5921 21.6526Z" fill="#FFB6B6"/>
<path d="M57.0654 12.3721L58.9655 15.7442C58.9655 15.7442 54.5864 17.2311 54.5758 16.9835C54.5652 16.7359 54.7934 13.3006 54.7934 13.3006L57.0654 12.3721Z" fill="#E6E6E6"/>
</svg>
