<svg width="12" height="12" viewBox="0 0 12 12" fill="none" xmlns="http://www.w3.org/2000/svg">
<g clip-path="url(#clip0_1595_8279)">
<path fill-rule="evenodd" clip-rule="evenodd" d="M9.31597 3.81371C9.31597 4.9213 8.77489 5.90299 7.9432 6.50701L7.00089 7.25998C6.67854 7.17756 6.34366 7.13514 6.00257 7.13514C4.93114 7.13514 3.924 7.55299 3.1673 8.31237C2.43472 9.0463 2.02088 10.0146 1.99409 11.0485C1.99275 11.1061 1.94454 11.153 1.88695 11.153H1.08472C1.07042 11.153 1.05626 11.1501 1.04309 11.1446C1.02991 11.139 1.01798 11.1309 1.00799 11.1207C0.998006 11.1104 0.990171 11.0983 0.984946 11.085C0.979722 11.0717 0.977215 11.0575 0.977573 11.0432C0.99007 10.4072 1.12371 9.77951 1.37132 9.19362C1.62299 8.59532 1.98872 8.05172 2.44811 7.59317C2.91016 7.12978 3.44722 6.76683 4.04588 6.51371C4.04855 6.51237 4.05123 6.51136 4.05391 6.51036C4.05659 6.50936 4.05927 6.50835 4.06195 6.50701C3.22891 5.90299 2.68784 4.9213 2.68784 3.81371C2.68784 1.97889 4.17043 0.492279 6.00123 0.492279C7.83204 0.492279 9.31597 1.97889 9.31597 3.81371ZM6.00257 6.11728C5.38918 6.11728 4.81195 5.87755 4.37668 5.44228C4.16252 5.22868 3.99274 4.97481 3.87713 4.6953C3.76151 4.4158 3.70234 4.11618 3.70302 3.81371C3.70302 3.19898 3.94275 2.6204 4.37668 2.18514C4.81061 1.74987 5.38784 1.51014 6.00257 1.51014C6.61731 1.51014 7.1932 1.74987 7.62847 2.18514C7.84262 2.39874 8.0124 2.65261 8.12802 2.93211C8.24364 3.21162 8.30281 3.51123 8.30213 3.81371C8.30213 4.42844 8.06239 5.00701 7.62847 5.44228C7.1932 5.87755 6.61597 6.11728 6.00257 6.11728Z" fill="#2D2D2D"/>
<path d="M9.3211 7.82805C9.20561 7.82805 9.09485 7.87393 9.01318 7.9556C8.93152 8.03726 8.88564 8.14802 8.88564 8.26351C8.88564 8.379 8.93152 8.48976 9.01318 8.57143C9.09485 8.65309 9.20561 8.69897 9.3211 8.69897C9.43659 8.69897 9.54735 8.65309 9.62902 8.57143C9.71068 8.48976 9.75656 8.379 9.75656 8.26351C9.75656 8.14802 9.71068 8.03726 9.62902 7.9556C9.54735 7.87393 9.43659 7.82805 9.3211 7.82805Z" fill="#2D2D2D"/>
<path d="M9.18909 8.79796C9.0702 8.79796 8.97365 8.89451 8.97365 9.01339V10.5096C8.97365 10.6284 9.0702 10.725 9.18909 10.725H9.45312C9.572 10.725 9.66855 10.6284 9.66855 10.5096V9.01339C9.66855 8.89451 9.572 8.79796 9.45312 8.79796H9.18909Z" fill="#2D2D2D"/>
<path fill-rule="evenodd" clip-rule="evenodd" d="M6.68547 9.32143C6.68547 7.86589 7.86565 6.68571 9.32119 6.68571C10.7767 6.68571 11.9569 7.86589 11.9569 9.32143C11.9569 10.777 10.7767 11.9571 9.32119 11.9571C7.86565 11.9571 6.68547 10.777 6.68547 9.32143ZM9.32119 7.44662C8.28603 7.44662 7.44638 8.28628 7.44638 9.32143C7.44638 10.3566 8.28603 11.1962 9.32119 11.1962C10.3563 11.1962 11.196 10.3566 11.196 9.32143C11.196 8.28628 10.3563 7.44662 9.32119 7.44662Z" fill="#2D2D2D"/>
</g>
<defs>
<clipPath id="clip0_1595_8279">
<rect width="12" height="12" fill="white"/>
</clipPath>
</defs>
</svg>
