<svg width="32" height="32" viewBox="0 0 32 32" fill="none" xmlns="http://www.w3.org/2000/svg">
<g clip-path="url(#clip0_629_397)">
<rect width="32" height="32" fill="url(#paint0_linear_629_397)"/>
<path opacity="0.1" d="M-21.989 30.3792L-26.7773 28.6876L-26.5375 28.0987L-21.1455 29.9039L-21.122 29.8913L-20.4105 29.4861L-20.1268 29.3073L-26.0062 26.7962L-25.758 26.1792L-12.6342 31.5079L-12.2016 31.327L-25.2166 24.9601L-24.9267 24.3607L-11.1346 30.8062L-10.944 30.7087L-24.3169 23.0932L-24.0425 22.5205L-4.73123 33.0713C-4.57204 32.7775 -4.2411 32.2433 -4.07073 31.9559C-11.4132 25.0253 -18.4986 19.82 -18.4986 19.82C-18.4986 19.82 -11.2121 24.7204 -2.21978 29.2751C-1.92235 28.9021 -1.67937 28.6035 -1.36169 28.2501L-17.8369 13.6872L-17.3943 13.2316L-4.09727 24.6103L-16.4157 12.2234L-15.9553 11.7439L-2.12413 25.1648L-14.9988 10.8178L-14.5065 10.3713L-2.60729 23.1661L-13.4679 9.42485L-13.0002 8.99792L0.921449 26.0096C1.28103 25.6969 1.58055 25.4628 1.95689 25.1725C-2.254 16.0231 -6.85309 8.57939 -6.85309 8.57939C-6.85309 8.57939 -1.95866 15.8142 4.64568 23.3905C5.04995 23.1633 5.4584 22.9432 5.87662 22.7392L5.8068 22.6929L-3.95064 3.14205L-3.37043 2.88546L4.71342 18.4368L-2.08712 2.31831L-1.48108 2.04771L6.33605 19.6938L-0.248747 1.54786L0.374057 1.32002L6.63349 17.658L1.69018 0.832793L2.28365 0.613364L8.79234 21.4815L8.77977 21.5369L8.79583 21.5306C9.22802 21.3848 9.66859 21.2558 10.112 21.1345C9.61622 11.1116 8.13952 2.53704 8.13952 2.53704C8.13952 2.53704 9.96742 11.0359 13.2462 20.512C13.7035 20.4559 14.1623 20.4082 14.6259 20.376L14.6112 20.3542H14.6678L14.6356 20.3072L12.8831 -1.48979L13.5164 -1.50942L15.2089 15.9502L14.9184 -1.55218L15.581 -1.57531L16.2443 17.726L16.909 -1.57531L17.5723 -1.55218L17.2811 15.9502L18.9729 -1.50942L19.6069 -1.48979L17.8544 20.3072L17.8216 20.3542H17.8313L17.8264 20.3619H17.8544C18.3082 20.3907 18.7578 20.4362 19.204 20.4895C22.4779 11.0226 24.303 2.53704 24.303 2.53704C24.303 2.53704 22.8312 11.0856 22.3327 21.0903C22.7802 21.2095 23.2222 21.3399 23.6579 21.4829L30.1435 0.686969L30.7384 0.9071L25.793 17.7323L32.0538 1.39433L32.6759 1.62288L26.0911 19.7681L33.9076 2.12202L34.515 2.39263L27.7138 18.5112L35.7976 2.95977L36.3771 3.21636L26.656 22.6964L26.672 22.7034C27.0728 22.8997 27.4652 23.1086 27.8527 23.3253C34.4284 15.7722 39.2956 8.57939 39.2956 8.57939C39.2956 8.57939 34.7279 15.972 30.5289 25.0772C30.9046 25.3618 31.2711 25.6563 31.6279 25.9612L45.3861 9.13532L45.8553 9.56226L34.9933 23.3028L46.8928 10.5087L47.385 10.9545L34.5094 25.3029L48.3402 11.8806L48.8024 12.3616L36.4832 24.7484L49.7806 13.369L50.2226 13.8246L33.9487 28.2235L33.9585 28.2333C34.2427 28.5509 34.5157 28.879 34.7845 29.2127C43.7202 24.6755 50.941 19.82 50.941 19.82C50.941 19.82 43.9247 24.9741 36.6208 31.8556C36.8205 32.1907 37.1437 32.7635 37.3281 33.1084L56.3661 22.6999L56.6426 23.2741L41.444 31.9278L57.2514 24.5423L57.5412 25.1403L42.8181 32.3436L43.1008 32.4424L58.0816 26.3587L58.3308 26.977L44.4051 32.9233L44.6655 33.032L53.9447 29.9264L55.3439 28.9456L55.8075 29.301L58.8615 28.2796L59.1017 28.8678L56.4597 29.8009L60.2767 32.7256L61.5 33.4106C56.5923 12.8137 38.1401 -2.5 16.1228 -2.5C-6.28126 -2.5 -24.994 13.3563 -29.5 34.5C-29.4422 34.472 -29.3863 34.446 -29.3282 34.418L-28.7688 34.1635L-28.4265 34.003L-21.989 30.3792Z" fill="url(#paint1_linear_629_397)"/>
<path d="M11.0767 7.17736H13.8672V16.2225C13.8672 17.0586 13.6738 17.7849 13.2869 18.4014C12.9044 19.0179 12.372 19.493 11.6895 19.8266C11.0071 20.1602 10.2139 20.327 9.30976 20.327C8.50563 20.327 7.7754 20.1898 7.11906 19.9153C6.46706 19.6366 5.94981 19.2143 5.56731 18.6485C5.18481 18.0784 4.99573 17.3626 5.00007 16.5012H7.81017C7.81886 16.8432 7.89058 17.1367 8.02533 17.3816C8.16442 17.6223 8.3535 17.8081 8.59256 17.939C8.83597 18.0657 9.12285 18.1291 9.4532 18.1291C9.80093 18.1291 10.0943 18.0573 10.3334 17.9137C10.5768 17.7659 10.7615 17.5505 10.8876 17.2676C11.0136 16.9847 11.0767 16.6363 11.0767 16.2225V7.17736Z" fill="white"/>
<path d="M23.445 10.9082C23.3928 10.3972 23.169 10.0003 22.7734 9.71734C22.3779 9.43442 21.8411 9.29295 21.163 9.29295C20.7023 9.29295 20.3133 9.35629 19.9959 9.48298C19.6786 9.60544 19.4352 9.77646 19.2657 9.99604C19.1005 10.2156 19.018 10.4648 19.018 10.7435C19.0093 10.9757 19.0592 11.1784 19.1679 11.3515C19.2809 11.5247 19.4352 11.6746 19.6308 11.8013C19.8264 11.9237 20.0525 12.0314 20.3089 12.1243C20.5654 12.213 20.8392 12.289 21.1304 12.3523L22.3301 12.631C22.9125 12.7577 23.4472 12.9266 23.934 13.1378C24.4208 13.3489 24.8424 13.6086 25.1989 13.9169C25.5553 14.2251 25.8313 14.5883 26.0269 15.0063C26.2268 15.4244 26.329 15.9037 26.3333 16.4442C26.329 17.2381 26.1203 17.9264 25.7074 18.5091C25.2988 19.0876 24.7077 19.5373 23.934 19.8583C23.1646 20.175 22.2366 20.3333 21.15 20.3333C20.072 20.3333 19.1331 20.1729 18.3334 19.8519C17.5379 19.531 16.9164 19.056 16.4687 18.4268C16.0253 17.7933 15.7928 17.01 15.771 16.0768H18.5029C18.5333 16.5117 18.6615 16.8749 18.8876 17.1663C19.1179 17.4534 19.4244 17.6709 19.8069 17.8187C20.1937 17.9623 20.6306 18.034 21.1174 18.034C21.5955 18.034 22.0106 17.9665 22.3627 17.8314C22.7191 17.6962 22.9951 17.5083 23.1907 17.2676C23.3863 17.0269 23.4841 16.7503 23.4841 16.4378C23.4841 16.1465 23.395 15.9016 23.2168 15.7031C23.0429 15.5046 22.7865 15.3357 22.4474 15.1964C22.1128 15.057 21.702 14.9303 21.2152 14.8163L19.7612 14.4616C18.6355 14.1956 17.7466 13.7796 17.0946 13.2138C16.4426 12.6479 16.1188 11.8857 16.1231 10.9272C16.1188 10.1417 16.3339 9.45553 16.7686 8.86857C17.2076 8.28161 17.8096 7.82344 18.5746 7.49406C19.3396 7.16469 20.2089 7 21.1826 7C22.1736 7 23.0386 7.16469 23.7775 7.49406C24.5208 7.82344 25.0989 8.28161 25.5118 8.86857C25.9248 9.45553 26.1377 10.1354 26.1508 10.9082H23.445Z" fill="white"/>
<rect y="28" width="32" height="4" fill="#FCBA19"/>
</g>
<defs>
<linearGradient id="paint0_linear_629_397" x1="16" y1="0" x2="16" y2="32" gradientUnits="userSpaceOnUse">
<stop stop-color="#0266CC"/>
<stop offset="1" stop-color="#013366"/>
</linearGradient>
<linearGradient id="paint1_linear_629_397" x1="16" y1="34.5" x2="16" y2="-2.5" gradientUnits="userSpaceOnUse">
<stop stop-color="white" stop-opacity="0"/>
<stop offset="1" stop-color="white"/>
</linearGradient>
<clipPath id="clip0_629_397">
<rect width="32" height="32" fill="white"/>
</clipPath>
</defs>
</svg>
