<?xml version="1.0" standalone="no"?>
<svg xmlns="http://www.w3.org/2000/svg">
  <g clipPath="url(#clip0_64_3715)">
    <path
      d="M4.81412 6.37346C4.81412 6.51252 4.82194 6.65002 4.836 6.78596C4.84381 6.84846 4.80319 6.90627 4.74381 6.92346C4.12975 7.07814 3.56725 7.39689 3.10787 7.85627C2.46256 8.50002 2.09537 9.34846 2.06569 10.2547C2.06412 10.3219 2.00787 10.375 1.94069 10.375H1.06412C1.04744 10.375 1.03093 10.3717 1.01556 10.3652C1.00018 10.3587 0.986261 10.3492 0.974612 10.3373C0.962963 10.3254 0.953822 10.3112 0.947727 10.2957C0.941632 10.2802 0.938707 10.2636 0.939124 10.2469C0.970374 9.04221 1.45475 7.91408 2.311 7.05939C2.70787 6.66252 3.16569 6.34533 3.66256 6.11564C2.95475 5.54221 2.50319 4.66721 2.50319 3.68596C2.50319 1.95471 3.94694 0.534393 5.67819 0.560955C6.87819 0.579705 7.91569 1.27346 8.4235 2.27814C8.46256 2.35627 8.41256 2.45002 8.32506 2.45939C8.02662 2.49064 7.736 2.55783 7.461 2.65314C7.40787 2.67189 7.34694 2.65158 7.31569 2.60314C7.22662 2.46564 7.12037 2.33752 6.99694 2.22189C6.63287 1.88127 6.15162 1.68908 5.65319 1.68439C5.10162 1.67814 4.58287 1.89377 4.19694 2.28908C3.84537 2.64846 3.64381 3.12502 3.62975 3.62658C3.62142 3.90342 3.67089 4.17896 3.77501 4.43562C3.87912 4.69227 4.03559 4.9244 4.23444 5.11721C4.40319 5.28283 4.5985 5.41408 4.811 5.50939C4.86256 5.53283 4.89225 5.59064 4.88131 5.64689C4.83756 5.88283 4.81412 6.12502 4.81412 6.37346Z"
    />
    <path
      d="M11.8751 6.37346C11.8751 4.66408 10.5016 3.27502 8.7985 3.24846C7.06725 3.22189 5.62506 4.64221 5.62506 6.37346C5.62506 7.35471 6.07819 8.2297 6.78444 8.80314C6.28242 9.03585 5.82541 9.35533 5.43444 9.74689C4.57819 10.6016 4.09381 11.7297 4.06256 12.9328C4.06214 12.9495 4.06507 12.9661 4.07117 12.9816C4.07726 12.9972 4.0864 13.0113 4.09805 13.0232C4.1097 13.0352 4.12362 13.0447 4.13899 13.0512C4.15437 13.0576 4.17088 13.061 4.18756 13.061H5.06256C5.12975 13.061 5.186 13.0078 5.18756 12.9406C5.21725 12.0344 5.58444 11.186 6.22975 10.5422C6.55353 10.2184 6.92825 9.96471 7.336 9.78853V7.78752C7.14731 7.59981 6.99822 7.37614 6.89757 7.12975C6.79692 6.88336 6.74676 6.61928 6.75006 6.35314C6.75475 5.84064 6.95944 5.34533 7.31725 4.97814C7.69225 4.59377 8.19381 4.37971 8.72975 4.37346C9.25944 4.36877 9.7735 4.57502 10.1516 4.94533C10.5391 5.32502 10.7516 5.83283 10.7516 6.37346H11.8751Z"
    />
    <path
      fillRule="evenodd"
      clipRule="evenodd"
      d="M13.7659 11.5762L13.2952 11.1699C13.3174 11.0321 13.3289 10.8913 13.3289 10.7506C13.3289 10.6098 13.3174 10.4691 13.2952 10.3313L13.7659 9.92497C13.8014 9.89429 13.8269 9.85342 13.8388 9.8078C13.8507 9.76219 13.8486 9.71398 13.8328 9.6696L13.8263 9.65074C13.6967 9.2851 13.5026 8.94616 13.2535 8.65028L13.2405 8.63504C13.2103 8.59917 13.17 8.57338 13.125 8.56107C13.0799 8.54877 13.0323 8.55053 12.9883 8.56612L12.4039 8.77579C12.1883 8.59731 11.9475 8.45657 11.6873 8.3579L11.5745 7.74123C11.566 7.69483 11.5437 7.65214 11.5105 7.61883C11.4774 7.58553 11.435 7.56319 11.389 7.55478L11.3696 7.55115C10.9952 7.48295 10.6013 7.48295 10.2268 7.55115L10.2074 7.55478C10.1614 7.56319 10.119 7.58553 10.0859 7.61883C10.0528 7.65214 10.0305 7.69483 10.022 7.74123L9.90841 8.3608C9.6503 8.45949 9.40993 8.60016 9.19685 8.77724L8.60819 8.56612C8.56418 8.5504 8.51647 8.54858 8.47141 8.56089C8.42634 8.5732 8.38606 8.59907 8.35591 8.63504L8.34297 8.65028C8.0941 8.94637 7.90006 9.28526 7.77013 9.65074L7.76366 9.6696C7.73131 9.76029 7.75791 9.86185 7.8305 9.92497L8.30703 10.3356C8.28475 10.472 8.27397 10.6113 8.27397 10.7499C8.27397 10.8892 8.28475 11.0285 8.30703 11.1641L7.8305 11.5748C7.79499 11.6054 7.76958 11.6463 7.75764 11.6919C7.7457 11.7375 7.7478 11.7857 7.76366 11.8301L7.77013 11.849C7.90022 12.2146 8.09285 12.552 8.34297 12.8495L8.35591 12.8647C8.38613 12.9006 8.42642 12.9263 8.47146 12.9387C8.51649 12.951 8.56416 12.9492 8.60819 12.9336L9.19685 12.7225C9.41103 12.9002 9.65038 13.041 9.90841 13.1389L10.022 13.7585C10.0305 13.8049 10.0528 13.8476 10.0859 13.8809C10.119 13.9142 10.1614 13.9365 10.2074 13.945L10.2268 13.9486C10.6047 14.0171 10.9917 14.0171 11.3696 13.9486L11.389 13.945C11.435 13.9365 11.4774 13.9142 11.5105 13.8809C11.5437 13.8476 11.566 13.8049 11.5745 13.7585L11.6873 13.1418C11.9474 13.0434 12.1895 12.9022 12.4039 12.7239L12.9883 12.9336C13.0323 12.9493 13.08 12.9511 13.125 12.9388C13.1701 12.9265 13.2104 12.9007 13.2405 12.8647L13.2535 12.8495C13.5036 12.5513 13.6962 12.2146 13.8263 11.849L13.8328 11.8301C13.8651 11.7409 13.8385 11.6393 13.7659 11.5762ZM11.5061 11.3925C11.4133 11.4864 11.3031 11.5609 11.1818 11.6116C11.0604 11.6623 10.9303 11.6884 10.7989 11.6881C10.532 11.6881 10.2811 11.5827 10.0918 11.3925C9.99878 11.2989 9.92502 11.1877 9.87476 11.0652C9.8245 10.9427 9.79874 10.8114 9.79894 10.6788C9.79894 10.4093 9.9034 10.156 10.0918 9.96498C10.2811 9.77392 10.532 9.66938 10.7989 9.66938C11.0659 9.66938 11.3168 9.77392 11.5061 9.96498C11.5991 10.0586 11.6729 10.1699 11.7231 10.2924C11.7734 10.4149 11.7991 10.5462 11.7989 10.6788C11.7989 10.9482 11.6945 11.2015 11.5061 11.3925Z"
    />
  </g>
  <defs>
    <clipPath id="clip0_64_3715">
      <rect width="14" height="14" fill="white" />
    </clipPath>
  </defs>
</svg>